<svg width="90" height="90" viewBox="0 0 90 90" fill="none" xmlns="http://www.w3.org/2000/svg">
<path d="M53.7224 25.6645C55.2355 26.9795 56.8084 28.134 58.1285 29.5258C65.6068 37.4106 68.049 46.718 64.9186 57.0877C61.8344 67.307 54.6719 73.5541 44.3296 76.1123C41.5476 76.7954 38.6939 76.8654 35.8437 76.6554C34.8053 76.5785 34.3186 76.1636 34.3323 75.4036C34.3459 74.5958 34.889 74.1723 35.8693 74.244C38.8989 74.4694 41.8943 74.3055 44.8419 73.5216C56.5232 70.4135 64.2475 59.9089 63.7249 47.7956C63.6651 46.4123 63.4431 45.0341 63.2774 43.4835C61.0163 44.7592 58.8782 45.8744 57.5393 47.9937C56.5402 49.57 56.822 51.329 56.9586 53.0624C57.0748 54.5533 57.5034 56.1364 57.1653 57.5266C56.1509 61.6867 53.4423 64.5028 49.3505 65.8093C47.1099 66.5231 45.1084 65.4387 44.4509 63.1759C44.0433 61.6706 43.8101 60.1234 43.7558 58.5649C43.6089 55.6975 43.6721 52.8199 43.5457 49.9491C43.4364 47.4848 43.17 47.3653 40.7313 47.671C38.7896 47.9152 36.8273 48.2328 34.8839 48.1696C31.2788 48.0535 28.9169 45.7446 28.3431 42.148C27.8308 38.8776 29.197 36.3415 31.4034 34.1214C31.7604 33.7628 32.1514 33.4383 32.6586 32.9738C28.9511 32.5452 25.6909 31.266 22.5196 29.1023C21.1772 30.5283 19.6915 31.8672 18.5063 33.4315C17.2955 35.0283 16.3664 36.847 15.3469 38.577C15.2766 38.7033 15.2343 38.8433 15.2228 38.9873C15.2114 39.1314 15.2309 39.2763 15.2803 39.4121C16.24 41.1541 17.2835 42.8499 18.2296 44.597C18.8188 45.6882 19.5822 46.4379 20.834 46.7112C21.5486 46.8847 22.2405 47.1415 22.8953 47.4763C24.6577 48.3302 25.3938 49.8398 24.7943 51.7081C24.311 53.2161 23.5989 54.6524 22.9875 56.1159C22.8167 56.5087 22.6459 56.8981 22.441 57.2721C21.6332 58.7579 21.5 60.0985 22.453 61.7123C23.7406 63.9017 24.1078 66.4173 23.7748 68.9738C23.7048 69.5135 23.8636 69.8277 24.323 70.0685C25.778 70.8404 27.216 71.6448 28.6761 72.403C29.501 72.8334 29.7998 73.3782 29.5027 74.0903C29.2055 74.8025 28.5736 75.0023 27.7078 74.6112C18.1545 70.2905 12.3463 62.9983 10.9596 52.5808C9.6651 42.8687 12.9492 34.6782 20.1919 28.081C20.3389 27.9731 20.4962 27.8799 20.6615 27.8026C20.4446 27.567 20.3609 27.4611 20.2567 27.3672C15.7311 23.499 12.3514 18.7548 9.6224 13.5068C9.24498 12.7878 9.25011 12.1594 9.90419 11.6129C15.0873 7.17266 20.7691 3.65464 27.4755 2.00834C34.8514 0.19809 41.3086 2.07152 47.004 6.92162C47.6769 7.49543 47.7554 8.11707 47.2687 8.69942C46.782 9.28177 46.1569 9.32447 45.4721 8.75919C43.2144 6.8943 40.7826 5.31972 37.9579 4.50511C36.4977 4.085 34.971 3.89031 33.475 3.59316L33.3691 3.83054C33.4637 4.01832 33.5686 4.20076 33.6833 4.37703C36.8609 8.71479 40.0437 13.0486 43.2315 17.3784C43.4023 17.6123 43.6585 17.8907 43.9146 17.9368C47.39 18.6455 50.8721 19.3184 54.3526 19.9998L54.5234 19.8188C53.1964 17.9061 51.9002 15.9831 50.5494 14.1045C49.7382 12.9808 49.6323 12.3609 50.3325 11.8315C51.0053 11.3192 51.6782 11.5002 52.416 12.5914C54.0537 15.0148 55.618 17.4894 57.2234 19.9349C57.4121 20.2456 57.6418 20.5293 57.9065 20.7785C59.7628 22.4095 61.6346 24.0233 63.5029 25.6389C63.5848 25.7106 63.6736 25.7789 63.8273 25.9121C63.6822 24.7645 63.508 23.7159 63.4209 22.6674C62.941 16.8182 65.2636 12.2704 69.9104 8.82409C73.0545 6.48955 76.581 4.95255 80.3382 3.90397C81.2091 3.66147 81.7488 3.9535 82.1587 4.70834C84.237 8.55084 85.7023 12.588 86.0148 16.9787C86.4247 22.7203 84.1141 27.193 79.5645 30.5983C76.9175 32.5793 73.975 33.9694 70.8549 35.0197C70.5645 35.1188 70.2742 35.2229 69.9856 35.3254C70.5338 37.0332 71.1469 38.6829 71.5892 40.3719C76.6408 59.6954 64.0886 79.2871 44.4355 82.7897C25.8583 86.1011 8.05978 73.7044 4.6613 55.0486C3.96584 51.2892 3.93925 47.4366 4.58274 43.6679C4.73986 42.7457 5.21292 42.37 6.01899 42.5135C6.74821 42.6433 7.0761 43.1846 6.95485 44.059C5.37686 55.5199 8.85903 65.2184 17.4184 72.9341C23.8653 78.7406 31.6084 81.2493 40.2771 80.8036C54.0845 80.0932 66.664 70.0924 69.5347 55.6992C72.1374 42.645 67.9055 31.9064 57.5905 23.5332C57.1704 23.1916 56.8664 23.1063 56.4429 23.5332C56.0033 23.938 55.5384 24.3144 55.0511 24.6603C54.6053 25.0019 54.1493 25.3417 53.7224 25.6645ZM62.5038 41.0687C60.5638 35.4569 57.1482 31.0543 52.2571 27.7685C51.6321 27.3467 51.1863 27.3176 50.5203 27.7343C46.6334 30.1645 42.4938 31.9696 37.9289 32.7193C37.5446 32.7825 37.1211 32.8269 36.8017 33.0216C36.052 33.4793 35.345 34.0104 34.6363 34.533C32.966 35.7694 31.5213 37.1937 30.8689 39.2448C29.7691 42.7047 32.0353 45.8334 35.6353 45.8317C35.8914 45.8365 36.1475 45.8251 36.4021 45.7975C38.2619 45.5619 40.1165 45.2852 41.9797 45.0854C43.6875 44.9026 44.7753 45.5499 45.3679 47.1552C45.6772 47.9486 45.8621 48.7851 45.9161 49.6349C46.034 52.4749 46.0067 55.3201 46.1296 58.1584C46.1869 59.547 46.3641 60.928 46.659 62.2861C46.9084 63.4235 47.6717 63.76 48.8125 63.4987C52.3289 62.6926 55.3192 58.307 54.771 54.7617C54.689 54.2288 54.6122 53.6943 54.5251 53.1615C53.8419 48.9655 55.2082 45.6677 58.8252 43.3639C60.0275 42.604 61.2349 41.8628 62.5038 41.0687ZM53.9649 22.4402C53.8084 22.3785 53.6488 22.3249 53.4867 22.2797C50.201 21.6341 46.9186 20.9784 43.626 20.3721C43.2947 20.3106 42.8421 20.4729 42.5552 20.6812C38.493 23.63 34.4404 26.5981 30.3975 29.5856C30.2507 29.6932 30.1294 29.8366 29.8545 30.0979C31.1148 30.2687 32.2027 30.4856 33.3008 30.5556C36.4704 30.7571 39.512 30.1269 42.4733 29.0305C46.63 27.4952 50.3786 25.2239 53.9752 22.4402H53.9649ZM21.4471 67.7493C21.4471 65.7273 21.1055 63.8932 20.0808 62.334C18.9418 60.5852 19.075 58.9184 19.8588 57.1628C20.5556 55.607 21.3241 54.0888 21.9901 52.5176C22.9892 50.166 22.8577 49.763 20.3729 49.1021C18.274 48.547 16.8617 47.3601 15.9326 45.4525C15.4886 44.5321 14.9729 43.6474 14.4827 42.7491C14.3683 42.5425 14.2266 42.3495 14.0643 42.0968C11.489 50.5708 14.0985 61.3332 21.4471 67.7493ZM39.8091 19.6907C39.6392 19.6168 39.4646 19.5541 39.2865 19.5028C37.1689 19.0896 35.0017 18.8453 32.9438 18.2288C30.7562 17.573 29.0996 18.0427 27.3884 19.5011C25.281 21.2977 22.9482 22.8245 20.6974 24.4725C21.9543 25.866 24.9549 28.0332 26.6746 28.7539C26.8086 28.803 26.9516 28.8227 27.0939 28.8118C27.2362 28.8009 27.3745 28.7596 27.4994 28.6907C31.5725 25.7379 35.6234 22.7596 39.8091 19.6907ZM40.0926 17.2059C36.812 12.7281 33.6919 8.46545 30.5547 4.21308C30.4862 4.13105 30.4001 4.06544 30.3029 4.0211C30.2056 3.97676 30.0997 3.95483 29.9928 3.95691C27.8193 4.26862 25.6993 4.87894 23.6928 5.77058C23.8636 6.02162 23.9695 6.21289 24.101 6.39221C25.848 8.7831 27.6685 11.1142 29.3182 13.5649C30.2046 14.885 31.2224 15.6142 32.8277 15.8362C35.1793 16.1488 37.5087 16.7055 40.0926 17.2059ZM83.5095 20.1006C80.4662 21.3558 77.5545 22.5427 74.6598 23.774C74.3985 23.885 74.1936 24.2453 74.0689 24.5357C73.1552 26.6738 72.2655 28.8222 71.3723 30.9672C71.181 31.4248 71 31.8877 70.7404 32.5349C75.1687 30.8271 79.0983 28.7778 81.759 24.8977C82.7154 23.499 83.2721 21.9381 83.5095 20.1006ZM68.4196 31.5427C68.4605 31.5051 68.522 31.4761 68.5408 31.4283C69.6201 28.8666 70.7063 26.3049 71.7549 23.7279C71.8539 23.4871 71.7753 23.1233 71.6712 22.8586C71.1588 21.5641 70.6141 20.285 70.0812 19.0007C69.4152 17.3903 68.7509 15.7799 68.0678 14.125C64.5292 18.2408 65.4651 25.7994 68.4161 31.5444L68.4196 31.5427ZM26.7258 17.0607L12.8399 14.3573C14.539 17.3893 16.5862 20.2126 18.9401 22.7698L26.7258 17.0607ZM78.8216 6.89088C76.137 7.85578 73.8144 8.96925 71.7019 10.4909C69.7585 11.8896 69.7636 11.8981 70.6619 14.0772C71.4867 16.0822 72.3133 18.0837 73.2235 20.2799C75.1089 15.7628 76.9209 11.4421 78.8216 6.89088ZM27.204 14.7006C25.1957 11.9681 23.3051 9.38082 21.2865 6.62959L13.301 11.7188L13.4017 12.0091L27.204 14.7006ZM75.6435 20.7359C78.1215 19.7112 80.3587 18.7446 82.6368 17.8804C83.4566 17.5696 83.764 17.1768 83.5385 16.3264C83.4156 15.8636 83.4207 15.3683 83.3353 14.8952C82.8891 12.4552 82.1135 10.087 81.0298 7.85578C79.2298 12.1611 77.481 16.3383 75.6435 20.7359Z" fill="#085F34"/>
<path d="M62.5044 41.0687C61.2321 41.8628 60.0247 42.6057 58.8292 43.3639C55.2087 45.6677 53.8442 48.9655 54.529 53.1615C54.6161 53.6943 54.6998 54.2288 54.7749 54.7617C55.3231 58.307 52.3328 62.6926 48.8165 63.4987C47.6757 63.76 46.9123 63.4235 46.663 62.2861C46.368 60.928 46.1909 59.547 46.1336 58.1584C46.0106 55.3201 46.0379 52.4749 45.9201 49.6349C45.8661 48.7851 45.6811 47.9486 45.3719 47.1552C44.7793 45.5499 43.6966 44.9026 41.9837 45.0854C40.1205 45.2852 38.2658 45.5619 36.4061 45.7975C36.1514 45.8251 35.8953 45.8365 35.6393 45.8317C32.0393 45.8317 29.773 42.7047 30.8729 39.2448C31.5252 37.1954 32.97 35.7694 34.6402 34.533C35.3489 34.0104 36.056 33.4793 36.8057 33.0216C37.125 32.8269 37.5486 32.7825 37.9328 32.7193C42.4909 31.9696 46.6425 30.1577 50.5243 27.7343C51.1903 27.3176 51.636 27.3467 52.2611 27.7685C57.1522 31.0543 60.5677 35.4569 62.5044 41.0687Z" fill="white"/>
<path d="M53.9752 22.4402C50.3786 25.2239 46.63 27.4953 42.4664 29.0323C39.5052 30.1287 36.4636 30.7588 33.294 30.5573C32.1959 30.4873 31.108 30.2704 29.8477 30.0996C30.1226 29.8383 30.2439 29.6949 30.3907 29.5873C34.4439 26.6124 38.5021 23.6442 42.5655 20.6829C42.8524 20.4746 43.305 20.3124 43.6363 20.3738C46.9289 20.9801 50.2112 21.6359 53.497 22.2814C53.659 22.3261 53.8186 22.3791 53.9752 22.4402Z" fill="white"/>
<path d="M21.4474 67.7494C14.1039 61.3332 11.4893 50.5708 14.08 42.1002C14.2508 42.353 14.384 42.5459 14.4984 42.7526C14.9885 43.6509 15.5043 44.5355 15.9483 45.456C16.8688 47.3636 18.2811 48.5505 20.3885 49.1055C22.8734 49.763 23.0048 50.1661 22.0058 52.5211C21.3398 54.0871 20.5713 55.6105 19.8745 57.1663C19.0906 58.9184 18.9574 60.5818 20.0965 62.3374C21.1041 63.8932 21.4456 65.7274 21.4474 67.7494Z" fill="white"/>
<path d="M39.8095 19.6907C35.6237 22.7647 31.5729 25.738 27.5033 28.6907C27.3783 28.7596 27.24 28.801 27.0977 28.8119C26.9554 28.8228 26.8124 28.803 26.6784 28.7539C24.9553 28.0332 21.9547 25.866 20.7012 24.4725C22.9452 22.8245 25.2849 21.2977 27.3923 19.5011C29.1 18.0427 30.76 17.5731 32.9477 18.2288C35.0055 18.8454 37.1727 19.0827 39.2904 19.5029C39.4673 19.5542 39.6407 19.617 39.8095 19.6907Z" fill="white"/>
<path d="M40.0932 17.2059C37.5093 16.7055 35.185 16.1488 32.8283 15.8397C31.223 15.6262 30.2051 14.8884 29.3188 13.5683C27.6691 11.1176 25.8486 8.78653 24.1015 6.39564C23.97 6.22486 23.8573 6.02505 23.6934 5.774C25.6999 4.88236 27.8199 4.27205 29.9934 3.96034C30.1002 3.95826 30.2062 3.98019 30.3034 4.02453C30.4007 4.06887 30.4867 4.13447 30.5552 4.21651C33.6924 8.46546 36.8125 12.7281 40.0932 17.2059Z" fill="white"/>
<path d="M68.4155 31.5427C65.4661 25.7994 64.5303 18.2408 68.0654 14.1234C68.7485 15.7782 69.4128 17.3886 70.0789 18.9991C70.6117 20.2833 71.1582 21.5607 71.6688 22.8569C71.773 23.1216 71.8515 23.4854 71.7525 23.7262C70.7022 26.2998 69.6178 28.8615 68.5384 31.4232C68.5197 31.4778 68.4582 31.5068 68.4155 31.5427Z" fill="white"/>
<path d="M26.7258 17.0607L18.94 22.7698C16.5862 20.2126 14.539 17.3893 12.8398 14.3573L26.7258 17.0607Z" fill="white"/>
<path d="M27.2058 14.7005L13.4035 12.0091L13.3027 11.7188L21.2883 6.62958C23.3069 9.38081 25.1974 11.9544 27.2058 14.7005Z" fill="white"/>
<path d="M75.6445 20.7359C77.4821 16.3383 79.2309 12.1611 81.0309 7.85748C82.1156 10.088 82.8923 12.4556 83.3398 14.8952C83.4252 15.3683 83.4201 15.8636 83.543 16.3264C83.7684 17.1803 83.461 17.5696 82.6413 17.8804C80.3597 18.7446 78.1225 19.7146 75.6445 20.7359Z" fill="white"/>
</svg>
