<svg width="90" height="90" viewBox="0 0 90 90" fill="none" xmlns="http://www.w3.org/2000/svg">
<path d="M73.7972 45.3195C73.7935 50.9717 72.1131 56.4959 68.9687 61.1928C65.8243 65.8897 61.3572 69.5482 56.1327 71.7053C50.9082 73.8625 45.1613 74.4212 39.6191 73.3109C34.077 72.2006 28.9887 69.4711 24.9984 65.4679C21.0081 61.4647 18.2951 56.3677 17.2027 50.822C16.1103 45.2763 16.6876 39.5311 18.8616 34.3136C21.0355 29.0962 24.7085 24.6409 29.4155 21.5117C34.1225 18.3824 39.6521 16.7199 45.3043 16.7345C52.8711 16.754 60.121 19.7748 65.4628 25.134C70.8047 30.4931 73.8021 37.7527 73.7972 45.3195ZM19.0446 45.2857C19.0446 50.4679 20.5806 55.5338 23.4586 59.8434C26.3366 64.153 30.4273 67.5129 35.214 69.4986C40.0007 71.4842 45.2686 72.0066 50.352 70.9996C55.4354 69.9926 60.1063 67.5015 63.7746 63.841C67.4428 60.1805 69.9438 55.5148 70.9615 50.4335C71.9792 45.3522 71.4679 40.0833 69.4924 35.2924C67.5168 30.5015 64.1655 26.4037 59.862 23.5167C55.5585 20.6296 50.4958 19.0829 45.3136 19.072C41.8661 19.0635 38.4509 19.7354 35.2636 21.049C32.0763 22.3627 29.1795 24.2924 26.7392 26.7275C24.299 29.1627 22.3632 32.0554 21.0428 35.2399C19.7224 38.4244 19.0434 41.8382 19.0446 45.2857Z" fill="#085F34"/>
<path d="M77.996 24.429C78.1649 23.4 78.3031 22.4631 78.4813 21.5294C78.5159 21.2664 78.5992 21.0122 78.727 20.7799C78.8515 20.5704 79.0446 20.4105 79.2736 20.327C79.5025 20.2436 79.7533 20.2419 79.9833 20.3222C80.2257 20.3608 80.4445 20.4896 80.596 20.6827C80.7475 20.8757 80.8205 21.1189 80.8004 21.3635C80.7297 22.2021 80.5884 23.0375 80.4625 23.87C80.2629 25.2154 80.0509 26.5608 79.8482 27.9061C79.7161 28.7416 79.2062 29.1532 78.3523 29.0304C76.454 28.7601 74.5618 28.456 72.6666 28.1611C72.5729 28.1427 72.4806 28.1181 72.3902 28.0874C72.0948 28.0252 71.8359 27.8491 71.6697 27.5972C71.5035 27.3453 71.4434 27.038 71.5024 26.742C71.526 26.5935 71.5793 26.4513 71.6591 26.3239C71.7389 26.1965 71.8436 26.0864 71.9669 26.0004C72.0902 25.9144 72.2296 25.8541 72.3768 25.8232C72.5239 25.7923 72.6758 25.7914 72.8233 25.8205C73.7755 25.9433 74.7215 26.1092 75.6676 26.2536C75.8151 26.2751 75.9748 26.2843 76.2451 26.315C76.1099 26.0539 76.0393 25.8727 75.9379 25.7007C71.5024 18.9952 65.5465 14.185 57.9963 11.3652C53.1662 9.59751 48.015 8.87877 42.8855 9.25681C37.756 9.63485 32.7659 11.101 28.2471 13.5577C23.7283 16.0144 19.7846 19.4053 16.6783 23.5048C13.572 27.6042 11.3744 32.3182 10.2318 37.3331C9.63158 39.8754 9.33565 42.48 9.35022 45.0922C9.35022 45.8017 9.06148 46.2594 8.55465 46.4222C8.37423 46.4948 8.1779 46.5189 7.98526 46.492C7.79263 46.465 7.61044 46.388 7.45687 46.2686C7.3033 46.1493 7.18373 45.9917 7.1101 45.8117C7.03647 45.6316 7.01135 45.4354 7.03725 45.2427C7.16933 43.0925 7.24919 40.9055 7.58093 38.7707C8.2305 34.6118 9.61598 30.6021 11.6724 26.9294C16.2246 18.7556 22.8318 12.901 31.5308 9.45461C37.1137 7.2121 43.1602 6.3685 49.1437 6.99727C61.1233 8.2413 70.5011 13.9055 77.4031 23.7195C77.526 23.8945 77.6427 24.0666 77.7656 24.2386C77.8366 24.3087 77.9137 24.3724 77.996 24.429Z" fill="#085F34"/>
<path d="M12.3488 66.2713C12.1983 67.2328 12.0416 68.1942 11.8942 69.1556C11.7467 70.1171 10.8713 70.6147 10.088 70.1294C9.88816 70.0091 9.73131 69.8289 9.63976 69.6144C9.54822 69.3999 9.52665 69.162 9.57812 68.9345C9.75628 67.7058 9.94979 66.4771 10.1433 65.2485C10.2662 64.4529 10.4105 63.6604 10.5211 62.8618C10.6655 61.7836 11.1539 61.3843 12.2443 61.5502C13.6634 61.7652 15.0826 62.0109 16.5017 62.2444C16.9747 62.3212 17.4508 62.3826 17.9208 62.4748C18.0736 62.4963 18.2204 62.5484 18.3526 62.6281C18.4847 62.7077 18.5994 62.8133 18.6898 62.9383C18.7801 63.0634 18.8443 63.2054 18.8784 63.3559C18.9125 63.5064 18.9159 63.6622 18.8884 63.814C18.8632 63.9664 18.8079 64.1122 18.7256 64.2429C18.6434 64.3736 18.5359 64.4866 18.4095 64.5753C18.2831 64.6639 18.1402 64.7265 17.9893 64.7593C17.8384 64.7921 17.6825 64.7944 17.5307 64.7662C16.5815 64.628 15.6355 64.4591 14.6894 64.3178C14.4909 64.3061 14.2919 64.3061 14.0935 64.3178C14.6003 65.0734 15.015 65.7338 15.4696 66.3574C20.7744 73.5789 27.7563 78.3215 36.4737 80.444C40.9217 81.5404 45.5439 81.7367 50.0689 81.0215C61.2344 79.2645 69.7921 73.5297 75.7819 63.986C78.4446 59.7445 80.1239 54.9606 80.6965 49.9853C80.8778 48.4649 80.9269 46.9137 81.0037 45.3963C81.0529 44.5515 81.5228 44.0509 82.2785 44.0939C82.9358 44.1307 83.3689 44.5915 83.3259 45.3502C83.2245 47.1932 83.1938 49.0792 82.9174 50.9099C81.575 59.8024 77.5849 67.3341 71.0208 73.4713C64.2818 79.7291 55.525 83.367 46.3357 83.7265C37.1464 84.086 28.1321 81.1432 20.9249 75.4311C17.8029 72.9626 15.0838 70.0238 12.8648 66.7198C12.7512 66.5539 12.6252 66.3942 12.5085 66.2314L12.3488 66.2713Z" fill="#085F34"/>
<path d="M19.045 45.2856C19.048 40.1012 20.5883 35.0341 23.4711 30.725C26.3539 26.416 30.4497 23.0585 35.2406 21.0772C40.0315 19.0958 45.3023 18.5796 50.3866 19.5938C55.4709 20.608 60.1402 23.107 63.8043 26.7749C67.4683 30.4428 69.9624 35.1148 70.9712 40.2002C71.98 45.2855 71.4583 50.5558 69.4719 55.3446C67.4855 60.1334 64.1237 64.2257 59.8116 67.1039C55.4995 69.9821 50.4308 71.5171 45.2464 71.5147C41.8021 71.5187 38.3909 70.8428 35.2083 69.5258C32.0258 68.2088 29.1346 66.2765 26.7004 63.8397C24.2662 61.403 22.3369 58.5097 21.0233 55.3257C19.7096 52.1418 19.0373 48.7299 19.045 45.2856ZM46.2876 36.7403V33.2293C46.2876 31.4631 46.2876 29.6969 46.2876 27.9338C46.2876 27.1228 45.7716 26.6314 45.0436 26.6805C44.3648 26.7266 43.9685 27.2242 43.9685 28.0505C43.9685 33.215 43.9685 38.3785 43.9685 43.5409C43.9685 44.4164 43.9685 44.4164 43.0962 44.4164C39.9109 44.4164 36.7255 44.4164 33.5402 44.4317C33.1617 44.4352 32.7912 44.5414 32.4682 44.7389C32.2667 44.8786 32.1229 45.0868 32.0635 45.3248C32.0042 45.5627 32.0334 45.8141 32.1457 46.0321C32.2398 46.2662 32.4068 46.4638 32.6221 46.5955C32.8373 46.7271 33.0893 46.7859 33.3405 46.7631C37.1576 46.7631 40.9767 46.7631 44.7979 46.7631C45.9006 46.7631 46.2938 46.373 46.2938 45.2795C46.2815 42.429 46.2743 39.5826 46.2723 36.7403H46.2876ZM46.4658 21.5908C46.4658 21.474 46.4658 21.3604 46.4658 21.2467C46.4764 21.0878 46.454 20.9285 46.3999 20.7787C46.3459 20.6289 46.2613 20.4919 46.1516 20.3765C46.0419 20.261 45.9095 20.1695 45.7627 20.1078C45.6158 20.0462 45.4578 20.0156 45.2986 20.0181C45.1421 20.0111 44.9859 20.0368 44.8398 20.0934C44.6938 20.15 44.5611 20.2364 44.4502 20.347C44.3393 20.4576 44.2526 20.5901 44.1956 20.736C44.1386 20.8819 44.1125 21.038 44.1191 21.1945C44.0974 21.5013 44.0974 21.8092 44.1191 22.116C44.1449 22.3856 44.2662 22.6371 44.461 22.8252C44.6559 23.0133 44.9115 23.1256 45.1818 23.142C45.4519 23.1563 45.7189 23.0784 45.9388 22.921C46.1587 22.7636 46.3186 22.536 46.3921 22.2757C46.4318 22.0496 46.4514 21.8204 46.4504 21.5908H46.4658ZM69.144 46.5911V46.5757C69.2791 46.5757 69.4143 46.5757 69.5464 46.5757C69.7004 46.5768 69.8529 46.5464 69.9948 46.4863C70.1366 46.4263 70.2646 46.3379 70.371 46.2265C70.4775 46.1152 70.56 45.9833 70.6136 45.839C70.6673 45.6946 70.6908 45.5408 70.6829 45.387C70.6801 45.2333 70.6467 45.0818 70.5845 44.9412C70.5223 44.8007 70.4325 44.674 70.3206 44.5687C70.2087 44.4633 70.0768 44.3814 69.9328 44.3279C69.7887 44.2743 69.6354 44.2501 69.4818 44.2566C69.1954 44.2397 68.9082 44.2397 68.6218 44.2566C68.3435 44.284 68.0842 44.4098 67.8904 44.6114C67.6967 44.813 67.5814 45.0772 67.5651 45.3563C67.5499 45.636 67.6383 45.9116 67.8134 46.1303C67.9885 46.349 68.238 46.4956 68.5143 46.542C68.7179 46.5701 68.9231 46.5865 69.1286 46.5911H69.144ZM21.3672 46.5911C21.5585 46.5872 21.7493 46.5708 21.9385 46.542C22.1196 46.5009 22.2884 46.4173 22.4309 46.2981C22.5733 46.1789 22.6853 46.0275 22.7576 45.8564C22.83 45.6853 22.8605 45.4995 22.8468 45.3142C22.8331 45.129 22.7755 44.9497 22.6788 44.7911C22.2672 44.057 20.4979 44.0815 20.0924 44.742C19.9851 44.8994 19.9179 45.0807 19.8965 45.2701C19.8752 45.4595 19.9005 45.6512 19.9701 45.8286C20.0397 46.006 20.1516 46.1637 20.2961 46.288C20.4405 46.4124 20.6131 46.4995 20.7989 46.542C20.982 46.5701 21.1667 46.5865 21.3518 46.5911H21.3672ZM46.4412 69.4198C46.4412 68.6027 46.2508 68.2188 45.744 67.9761C45.5561 67.8789 45.3433 67.8407 45.1334 67.8665C44.9235 67.8923 44.7263 67.9808 44.5675 68.1205C43.9163 68.6242 43.9163 70.0833 44.5675 70.5778C44.7274 70.7164 44.9249 70.8043 45.1349 70.8306C45.3449 70.8568 45.5579 70.8202 45.747 70.7252C45.9914 70.6158 46.1924 70.428 46.3181 70.1916C46.4438 69.9552 46.4872 69.6836 46.4412 69.4198Z" fill="white"/>
<path d="M46.272 36.7403C46.272 39.5826 46.272 42.4239 46.272 45.2642C46.272 46.3577 45.8788 46.7478 44.7761 46.7478C40.959 46.7478 37.1399 46.7478 33.3188 46.7478C33.0675 46.7706 32.8155 46.7118 32.6003 46.5801C32.385 46.4484 32.218 46.2508 32.1239 46.0167C32.0116 45.7987 31.9824 45.5473 32.0418 45.3094C32.1011 45.0715 32.2449 44.8633 32.4464 44.7235C32.7694 44.526 33.1399 44.4199 33.5184 44.4164C36.7037 44.3949 39.8891 44.4164 43.0744 44.401C43.9468 44.401 43.9468 44.401 43.9468 43.5256C43.9468 38.3611 43.9468 33.1976 43.9468 28.0351C43.9468 27.2089 44.343 26.7113 45.0218 26.6652C45.7498 26.616 46.2505 27.1075 46.2659 27.9184C46.2659 29.6816 46.2659 31.4478 46.2659 33.214L46.272 36.7403Z" fill="#085F34"/>
<path d="M46.4506 21.5908C46.4555 21.82 46.4401 22.0492 46.4045 22.2758C46.331 22.536 46.1711 22.7636 45.9512 22.921C45.7313 23.0784 45.4643 23.1563 45.1943 23.142C44.9239 23.1256 44.6683 23.0133 44.4735 22.8252C44.2786 22.6371 44.1573 22.3856 44.1315 22.116C44.1098 21.8092 44.1098 21.5013 44.1315 21.1945C44.1256 21.0407 44.1512 20.8873 44.2067 20.7437C44.2622 20.6001 44.3465 20.4693 44.4544 20.3594C44.5622 20.2496 44.6914 20.1629 44.8339 20.1047C44.9765 20.0466 45.1294 20.0181 45.2833 20.0212C45.4426 20.0187 45.6006 20.0492 45.7474 20.1109C45.8943 20.1726 46.0267 20.2641 46.1364 20.3795C46.2461 20.495 46.3306 20.632 46.3847 20.7817C46.4388 20.9315 46.4612 21.0909 46.4506 21.2498C46.4506 21.3635 46.4506 21.4771 46.4506 21.5939V21.5908Z" fill="#085F34"/>
<path d="M69.1274 46.5911C68.9168 46.5891 68.7066 46.5748 68.4977 46.5481C68.2214 46.5017 67.9719 46.3552 67.7968 46.1364C67.6217 45.9177 67.5334 45.6422 67.5486 45.3624C67.5648 45.0833 67.6801 44.8192 67.8739 44.6176C68.0676 44.4159 68.327 44.2901 68.6052 44.2628C68.8917 44.2459 69.1788 44.2459 69.4653 44.2628C69.6188 44.2562 69.7722 44.2804 69.9162 44.334C70.0603 44.3876 70.1921 44.4695 70.3041 44.5748C70.416 44.6802 70.5057 44.8068 70.5679 44.9474C70.6301 45.0879 70.6636 45.2395 70.6663 45.3932C70.6743 45.547 70.6507 45.7008 70.5971 45.8451C70.5435 45.9895 70.4609 46.1214 70.3545 46.2327C70.248 46.344 70.12 46.4324 69.9782 46.4925C69.8364 46.5525 69.6838 46.5829 69.5298 46.5819C69.3977 46.5819 69.2625 46.5819 69.1274 46.5819V46.5911Z" fill="#085F34"/>
<path d="M21.351 46.5911C21.1607 46.5872 20.9709 46.5708 20.7828 46.5419C20.597 46.4995 20.4244 46.4123 20.2799 46.288C20.1355 46.1637 20.0236 46.006 19.954 45.8286C19.8843 45.6512 19.8591 45.4595 19.8804 45.2701C19.9017 45.0807 19.969 44.8994 20.0763 44.7419C20.4817 44.0815 22.251 44.057 22.6626 44.7911C22.7594 44.9497 22.817 45.129 22.8307 45.3142C22.8444 45.4994 22.8138 45.6853 22.7415 45.8564C22.6692 46.0274 22.5571 46.1788 22.4147 46.2981C22.2723 46.4173 22.1035 46.5009 21.9224 46.5419C21.7332 46.5708 21.5423 46.5872 21.351 46.5911Z" fill="#085F34"/>
<path d="M46.4398 69.4198C46.4875 69.6857 46.4444 69.96 46.3173 70.1984C46.1903 70.4369 45.9868 70.6257 45.7395 70.7345C45.5504 70.8294 45.3373 70.8661 45.1273 70.8398C44.9174 70.8136 44.7199 70.7256 44.56 70.587C43.9149 70.0833 43.9149 68.6242 44.56 68.1297C44.7187 67.99 44.916 67.9015 45.1259 67.8757C45.3358 67.85 45.5486 67.8882 45.7364 67.9853C46.2494 68.1911 46.4398 68.5874 46.4398 69.4198Z" fill="#085F34"/>
</svg>
