<svg width="90" height="90" viewBox="0 0 90 90" fill="none" xmlns="http://www.w3.org/2000/svg">
<path d="M73.5097 75.9231C73.6222 76.0478 73.7286 76.1785 73.8472 76.294C75.9421 78.392 78.031 80.4961 80.1472 82.5728C80.4065 82.802 80.7351 82.938 81.0806 82.9589C82.011 83.0106 82.9414 82.9589 83.8749 82.9832C84.6533 82.9832 85.1245 83.4271 85.1276 84.0839C85.1306 84.7407 84.6168 85.215 83.8384 85.215H6.59954C6.3715 85.215 6.14346 85.215 5.91846 85.215C5.64206 85.1946 5.38262 85.074 5.1889 84.8758C4.99518 84.6775 4.8805 84.4154 4.86644 84.1386C4.85337 83.861 4.94731 83.5889 5.1289 83.3785C5.31049 83.168 5.56588 83.0353 5.84245 83.0075C6.0698 82.9857 6.29825 82.9776 6.52657 82.9832H16.5908C16.3992 82.74 16.3171 82.6092 16.2077 82.4998C14.0793 80.3714 11.9509 78.2217 9.79211 76.1146C9.57269 75.9212 9.29377 75.8086 9.00157 75.7954C8.07117 75.7559 7.14076 75.7954 6.20731 75.7771C5.35596 75.7771 4.85731 75.3302 4.86644 74.6339C4.87556 73.9376 5.38637 73.5302 6.23468 73.515H83.358C83.6803 73.503 84.0028 73.5295 84.3188 73.594C84.5591 73.6527 84.7724 73.7913 84.9236 73.9871C85.0749 74.1829 85.1551 74.4242 85.1512 74.6716C85.1473 74.9189 85.0595 75.1576 84.9022 75.3485C84.7449 75.5395 84.5274 75.6713 84.2854 75.7224C84.0254 75.7758 83.7599 75.7973 83.4948 75.7863C80.3996 75.7863 77.3033 75.7863 74.206 75.7863H73.5522L73.5097 75.9231ZM40.8421 82.9163C40.6931 82.7278 40.6414 82.6488 40.5776 82.5849C38.3914 80.3957 36.2114 78.2005 34.0039 76.0325C33.7736 75.8492 33.4864 75.7524 33.1921 75.7589C30.6502 75.7376 28.1053 75.7589 25.5604 75.7589C25.3688 75.7589 25.1803 75.7832 24.9097 75.8015C24.9737 75.8963 25.0427 75.9877 25.1164 76.0751C27.3147 78.2765 29.51 80.4839 31.7296 82.6701C31.9565 82.857 32.2414 82.9592 32.5354 82.9589C35.0803 82.9802 37.6252 82.9589 40.1671 82.9589C40.3495 82.9741 40.532 82.9528 40.8421 82.9315V82.9163ZM77.2283 82.9163C77.0428 82.6974 76.9485 82.5667 76.836 82.4542C74.7076 80.3258 72.6036 78.1974 70.4509 76.1025C70.2194 75.8951 69.9223 75.7756 69.6117 75.765C67.0485 75.7407 64.4854 75.7498 61.9222 75.765C61.7428 75.765 61.5634 75.7863 61.2958 75.8045C61.4327 75.9778 61.4995 76.0842 61.5999 76.1724C63.7587 78.3342 65.9114 80.5021 68.0884 82.6457C68.3287 82.8421 68.6294 82.9495 68.9397 82.9498C71.4664 82.9741 73.9901 82.965 76.5168 82.9498C76.7114 82.9741 76.8968 82.9498 77.2283 82.9285V82.9163ZM49.2006 75.7863C49.2401 75.8709 49.2879 75.9514 49.3435 76.0265C51.5691 78.2582 53.7887 80.49 56.0326 82.7157C56.2497 82.8861 56.52 82.9744 56.7958 82.965C59.3408 82.9832 61.8857 82.965 64.4276 82.965C64.6191 82.965 64.8107 82.9315 65.0874 82.9072C65.0106 82.8017 64.9284 82.7002 64.8411 82.6032C62.6549 80.414 60.4749 78.2187 58.2705 76.0508C58.0402 75.8671 57.7532 75.7692 57.4587 75.7741C54.9168 75.7528 52.3718 75.7741 49.8269 75.7741C49.6475 75.765 49.4651 75.7832 49.2006 75.7984V75.7863ZM37.0384 75.7863C37.1691 75.9596 37.2056 76.0265 37.2573 76.0903C39.4556 78.2917 41.6509 80.4991 43.8674 82.6853C44.0818 82.8587 44.3488 82.9541 44.6245 82.9559C47.206 82.9741 49.7935 82.9559 52.3718 82.9559C52.5755 82.9456 52.7785 82.9243 52.9799 82.892C52.8401 82.7248 52.7854 82.6488 52.7215 82.588C50.5364 80.3988 48.3462 78.2136 46.1509 76.0325C45.9382 75.8583 45.6718 75.7627 45.3968 75.7619C42.8337 75.7437 40.2705 75.7619 37.7073 75.7619C37.5127 75.765 37.3333 75.7863 37.0414 75.8075L37.0384 75.7863ZM28.7134 82.9224C28.6119 82.7821 28.5034 82.6472 28.3881 82.518C26.2293 80.3532 24.0664 78.1944 21.8995 76.0417C21.7098 75.8666 21.4642 75.7643 21.2063 75.7528C18.5884 75.7346 15.9674 75.7528 13.3465 75.7528C13.1884 75.7528 13.0424 75.7832 12.7901 75.8075C12.933 75.9809 13.006 76.0903 13.0941 76.1785C15.2529 78.3434 17.4056 80.5113 19.5857 82.6518C19.8275 82.8518 20.1324 82.9595 20.4462 82.9559C22.9698 82.9802 25.4965 82.9711 28.0202 82.9559C28.2087 82.9741 28.3941 82.9589 28.7164 82.9437L28.7134 82.9224Z" fill="#085F34"/>
<path d="M50.9416 22.4217C50.9416 26.3177 50.9416 30.2126 50.9416 34.1065C50.9299 34.2912 50.9628 34.4759 51.0374 34.6453C51.112 34.8146 51.2262 34.9635 51.3703 35.0795C54.5355 37.8738 55.6848 41.3765 54.5021 45.4173C53.3497 49.3457 50.5494 51.7021 46.5176 52.4106C42.1848 53.1738 37.7365 50.7352 35.9092 46.7065C35.0112 44.7365 34.7909 42.5246 35.2827 40.4162C35.7745 38.3078 36.9506 36.4216 38.6274 35.0521C38.7646 34.9552 38.8745 34.8246 38.9464 34.6727C39.0183 34.5209 39.0498 34.3531 39.0379 34.1856C39.0135 33.2734 39.0135 32.3613 39.0379 31.4491C39.0379 31.0173 38.8858 30.8896 38.4723 30.8988C37.6575 30.92 36.8396 30.8988 36.0217 30.8988C35.4926 30.8988 35.0456 30.7072 34.8419 30.1721C34.5531 29.418 35.073 28.6792 35.9426 28.6518C36.8122 28.6244 37.6544 28.6275 38.5088 28.6518C38.895 28.6518 39.044 28.5423 39.0379 28.1349C39.0196 26.5204 39.0227 24.9028 39.0379 23.2883C39.0379 22.9173 38.9162 22.7866 38.5453 22.7927C37.7274 22.8109 36.9125 22.7927 36.0946 22.7927C35.2767 22.7927 34.7872 22.3609 34.772 21.6859C34.7568 21.0109 35.2402 20.5396 36.0885 20.5153C36.9369 20.491 37.7244 20.4971 38.5423 20.5153C38.9132 20.5153 39.0318 20.3815 39.0288 20.0136C39.0125 18.3798 39.0125 16.7461 39.0288 15.1123C39.0288 14.7687 38.9223 14.6379 38.5727 14.6471C37.7183 14.6471 36.8608 14.6471 36.0065 14.6471C35.2494 14.6471 34.769 14.2001 34.7659 13.5312C34.7629 12.8623 35.2281 12.4366 36.0034 12.4244C36.7787 12.4123 37.6392 12.3971 38.4541 12.4244C38.9193 12.4427 39.0105 12.2602 39.0379 11.8163C39.1048 10.819 39.0835 9.77613 39.3875 8.84572C39.8484 7.52872 40.7579 6.41583 41.9567 5.7019C43.1556 4.98798 44.5673 4.71853 45.9448 4.94075C47.3223 5.16296 48.5778 5.86267 49.4913 6.91735C50.4048 7.97203 50.9182 9.31446 50.9416 10.7096C50.9811 14.6045 50.9416 18.4994 50.9416 22.3944V22.4217ZM48.6916 23.0298V11.3937C48.6957 11.0893 48.6845 10.7848 48.6581 10.4815C48.6104 9.98816 48.4627 9.50968 48.224 9.07529C47.9852 8.6409 47.6605 8.25971 47.2695 7.95498C46.8786 7.65025 46.4297 7.42837 45.9501 7.30289C45.4706 7.1774 44.9705 7.15094 44.4804 7.22511C42.5345 7.49876 41.2514 8.98559 41.2483 11.0106C41.2483 18.9525 41.2483 26.8934 41.2483 34.8332C41.2662 35.1605 41.1981 35.4867 41.0509 35.7795C40.9037 36.0724 40.6825 36.3216 40.4092 36.5025C38.0193 38.2903 36.9794 40.7106 37.3382 43.669C37.5767 45.3477 38.3624 46.9009 39.5733 48.0877C40.7843 49.2745 42.3529 50.0288 44.036 50.2335C45.7192 50.4382 47.4229 50.082 48.883 49.2201C50.3432 48.3581 51.4782 47.0386 52.1122 45.466C52.7491 43.9041 52.8423 42.1734 52.3769 40.5521C51.9114 38.9308 50.9144 37.513 49.546 36.5268C49.2551 36.3369 49.0203 36.0727 48.8658 35.7616C48.7113 35.4505 48.6427 35.1037 48.6673 34.7572C48.7068 30.8532 48.6916 26.9309 48.6916 23.0177V23.0298Z" fill="#085F34"/>
<path d="M58.1731 21.9717C58.3586 22.8596 58.5258 23.5984 58.6626 24.3373C58.7994 25.0761 58.4771 25.6751 57.8508 25.7967C57.1667 25.9336 56.6346 25.5565 56.4674 24.7782C56.1086 23.1565 55.7599 21.542 55.4214 19.9346C55.3818 19.7915 55.3721 19.6417 55.3929 19.4947C55.4138 19.3476 55.4648 19.2065 55.5427 19.0801C55.6206 18.9536 55.7238 18.8447 55.8457 18.7599C55.9677 18.6752 56.1058 18.6165 56.2515 18.5876C57.8538 18.1954 59.4623 17.8184 61.0768 17.4778C61.8369 17.3167 62.3812 17.6694 62.5241 18.317C62.667 18.9646 62.2413 19.4876 61.5116 19.664L59.5961 20.114C59.8545 20.2994 59.9883 20.418 60.1342 20.5001C65.6802 24.0727 69.5326 28.9893 71.2383 35.3501C73.914 45.3322 71.591 54.168 64.2451 61.4562C58.6565 67.0082 51.7271 69.2886 43.8734 68.7383C43.4751 68.7109 43.0799 68.6501 42.6846 68.5923C42.5384 68.5798 42.3962 68.5382 42.2663 68.47C42.1365 68.4017 42.0215 68.3082 41.9283 68.1949C41.8351 68.0816 41.7655 67.9507 41.7236 67.8101C41.6817 67.6695 41.6683 67.522 41.6842 67.3761C41.694 67.2333 41.7326 67.0939 41.7977 66.9663C41.8628 66.8387 41.953 66.7257 42.063 66.6339C42.1729 66.5422 42.3003 66.4736 42.4374 66.4324C42.5746 66.3912 42.7186 66.3781 42.8609 66.394C44.3599 66.4457 45.868 66.6646 47.3518 66.5491C57.5072 65.7586 64.6221 60.6048 68.4106 51.1913C72.6491 40.6619 68.4471 28.3447 58.8359 22.367C58.6717 22.2454 58.4893 22.1511 58.1731 21.9717Z" fill="#085F34"/>
<path d="M31.8022 61.9974C31.635 61.1978 31.4708 60.4771 31.337 59.7565C31.188 58.9569 31.5194 58.3792 32.164 58.2515C32.8086 58.1238 33.359 58.5251 33.5292 59.3065C33.888 60.918 34.2367 62.5315 34.5752 64.1471C34.6118 64.2861 34.62 64.4311 34.5993 64.5734C34.5787 64.7156 34.5296 64.8523 34.4549 64.9752C34.3803 65.098 34.2817 65.2046 34.1649 65.2886C34.0482 65.3725 33.9158 65.432 33.7755 65.4636C32.1154 65.869 30.4512 66.2521 28.783 66.613C28.6427 66.6452 28.4975 66.6492 28.3558 66.6248C28.214 66.6004 28.0785 66.5481 27.9571 66.4708C27.8357 66.3936 27.7309 66.293 27.6488 66.1749C27.5666 66.0568 27.5088 65.9235 27.4786 65.7829C27.4166 65.501 27.4662 65.2061 27.617 64.9601C27.7678 64.714 28.0081 64.536 28.2873 64.4633C28.9319 64.2657 29.5978 64.1349 30.4157 63.9403C30.1634 63.7609 30.0265 63.6515 29.8806 63.5572C23.2978 59.264 19.1992 53.268 18.0711 45.4964C16.6421 35.6633 19.9198 27.4934 27.4603 21.0322C27.734 20.7981 28.0198 20.5761 28.3147 20.3694C28.4283 20.2725 28.5603 20.1997 28.7028 20.1552C28.8453 20.1107 28.9954 20.0955 29.1439 20.1105C29.2924 20.1255 29.4364 20.1704 29.5671 20.2424C29.6979 20.3145 29.8127 20.4123 29.9046 20.5299C29.9966 20.6475 30.0638 20.7825 30.1022 20.9268C30.1406 21.071 30.1495 21.2216 30.1282 21.3694C30.1069 21.5171 30.056 21.6591 29.9784 21.7866C29.9008 21.9142 29.7983 22.0247 29.6769 22.1116C28.6948 22.9812 27.6336 23.7717 26.7427 24.7234C21.4583 30.3728 19.1688 37.0559 20.2451 44.7423C21.2485 51.9271 24.8789 57.5339 30.9265 61.5565C31.1302 61.6934 31.3461 61.8119 31.562 61.9336C31.6399 61.9624 31.7203 61.9838 31.8022 61.9974Z" fill="#085F34"/>
<path d="M77.2274 82.9285C76.9233 82.9498 76.7105 82.9741 76.5159 82.9741C73.9892 82.9741 71.4655 82.9741 68.9388 82.9741C68.6285 82.9739 68.3278 82.8665 68.0875 82.6701C65.9105 80.5417 63.7578 78.3586 61.599 76.1967C61.5108 76.1086 61.4439 76.0021 61.2949 75.8288C61.5625 75.8106 61.7419 75.7893 61.9213 75.7893C64.4844 75.7893 67.0476 75.7893 69.6108 75.7893C69.9214 75.7999 70.2185 75.9194 70.45 76.1268C72.5784 78.2278 74.7067 80.3562 76.8351 82.4785C76.9476 82.5788 77.0419 82.7096 77.2274 82.9285Z" fill="white"/>
<path d="M37.041 75.8075C37.3451 75.7862 37.5123 75.765 37.6947 75.765C40.2579 75.765 42.8211 75.765 45.3843 75.765C45.6593 75.7657 45.9256 75.8613 46.1383 76.0356C48.3397 78.2085 50.5299 80.3937 52.7089 82.591C52.7728 82.6579 52.8275 82.7339 52.9674 82.895C52.766 82.9273 52.563 82.9486 52.3593 82.9589C49.7748 82.9589 47.1903 82.9589 44.612 82.9589C44.3362 82.9571 44.0693 82.8617 43.8549 82.6883C41.6383 80.5021 39.443 78.2947 37.2447 76.0933C37.2082 76.0477 37.1718 75.9808 37.041 75.8075Z" fill="white"/>
<path d="M28.7163 82.9437C28.394 82.9589 28.2085 82.9741 28.023 82.9741C25.4994 82.9741 22.9727 82.9741 20.449 82.9741C20.1353 82.9778 19.8304 82.87 19.5886 82.67C17.4085 80.5417 15.2558 78.3616 13.097 76.1967C13.0088 76.1086 12.9359 75.9991 12.793 75.8258C13.0332 75.8015 13.1913 75.7711 13.3494 75.7711C15.9703 75.7711 18.5913 75.7711 21.2092 75.7711C21.4671 75.7826 21.7126 75.8849 21.9024 76.0599C24.0774 78.2065 26.2403 80.3653 28.3909 82.5363C28.5063 82.6664 28.6149 82.8024 28.7163 82.9437Z" fill="white"/>
<path d="M48.6931 23.0177C48.6931 26.9308 48.6931 30.844 48.6931 34.7572C48.6686 35.1037 48.7371 35.4505 48.8916 35.7616C49.0461 36.0727 49.2809 36.3369 49.5718 36.5268C50.9402 37.513 51.9373 38.9307 52.4027 40.552C52.8682 42.1733 52.7749 43.9041 52.138 45.466C51.5041 47.0386 50.369 48.3581 48.9089 49.22C47.4487 50.082 45.7451 50.4382 44.0619 50.2335C42.3787 50.0288 40.8101 49.2745 39.5992 48.0877C38.3882 46.9009 37.6026 45.3477 37.3641 43.669C37.0053 40.7106 38.0451 38.2903 40.435 36.5025C40.7083 36.3216 40.9295 36.0723 41.0768 35.7795C41.224 35.4867 41.292 35.1605 41.2742 34.8332C41.2519 26.8913 41.2519 18.9504 41.2742 11.0106C41.2742 8.98557 42.5603 7.49874 44.5063 7.2251C44.9945 7.15452 45.492 7.18368 45.9687 7.31084C46.4454 7.43799 46.8913 7.66049 47.2795 7.96488C47.6678 8.26927 47.9902 8.64923 48.2275 9.08179C48.4647 9.51435 48.6117 9.99052 48.6597 10.4815C48.686 10.7848 48.6972 11.0893 48.6931 11.3937V23.0177ZM46.0995 27.9889V19.9072C46.0995 18.8552 45.7255 18.3109 44.9928 18.2987C44.26 18.2866 43.8586 18.8339 43.8586 19.9315C43.8586 25.3467 43.8586 30.7619 43.8586 36.1771C43.8586 36.6849 43.7461 36.9342 43.2171 37.1045C42.1927 37.4515 41.3019 38.1092 40.6687 38.986C40.0355 39.8628 39.6913 40.9152 39.684 41.9967C39.6909 43.303 40.1792 44.5608 41.0554 45.5296C41.9317 46.4984 43.1343 47.1101 44.4333 47.2477C47.0208 47.5518 49.5536 45.7275 50.1191 43.1096C50.3868 41.8512 50.1784 40.5382 49.5342 39.4246C48.8901 38.3109 47.8559 37.4756 46.6316 37.0802C46.1755 36.9312 46.0752 36.7092 46.0782 36.2683C46.1086 33.5014 46.0995 30.7467 46.0995 27.9889Z" fill="white"/>
<path d="M46.0993 27.989C46.0993 30.7467 46.0993 33.5015 46.0993 36.2562C46.0993 36.6971 46.1966 36.919 46.6527 37.068C47.877 37.4634 48.9112 38.2987 49.5553 39.4124C50.1995 40.5261 50.4079 41.839 50.1402 43.0974C49.5747 45.7062 47.0419 47.5488 44.4544 47.2356C43.1554 47.0979 41.9528 46.4862 41.0765 45.5174C40.2003 44.5486 39.712 43.2908 39.7051 41.9846C39.7124 40.903 40.0566 39.8506 40.6898 38.9738C41.323 38.097 42.2138 37.4393 43.2382 37.0923C43.7672 36.9221 43.8797 36.6727 43.8797 36.165C43.8615 30.7498 43.8797 25.3346 43.8797 19.9194C43.8797 18.8217 44.2629 18.2714 45.0139 18.2866C45.7649 18.3018 46.1206 18.843 46.1206 19.895L46.0993 27.989ZM47.9845 42.0241C47.9905 41.428 47.8194 40.8436 47.4928 40.3448C47.1663 39.8461 46.699 39.4556 46.1503 39.2227C45.6015 38.9899 44.996 38.9252 44.4104 39.0369C43.8249 39.1486 43.2856 39.4317 42.8612 39.8502C42.4367 40.2687 42.146 40.8038 42.026 41.3878C41.906 41.9717 41.962 42.5781 42.1871 43.1301C42.4121 43.6821 42.796 44.1548 43.29 44.4884C43.7841 44.822 44.3661 45.0014 44.9622 45.0038C45.3564 45.007 45.7474 44.9325 46.1127 44.7844C46.4781 44.6363 46.8106 44.4176 47.0914 44.1408C47.3721 43.864 47.5955 43.5346 47.7487 43.1714C47.902 42.8082 47.9821 42.4183 47.9845 42.0241Z" fill="#085F34"/>
<path d="M47.9832 42.0241C47.9844 42.6202 47.8085 43.2033 47.478 43.6994C47.1474 44.1954 46.677 44.5822 46.1263 44.8106C45.5757 45.039 44.9697 45.0987 44.385 44.9823C43.8004 44.8658 43.2635 44.5784 42.8424 44.1565C42.4213 43.7345 42.135 43.1971 42.0197 42.6122C41.9044 42.0273 41.9654 41.4214 42.1949 40.8712C42.4245 40.321 42.8122 39.8514 43.3089 39.5218C43.8057 39.1923 44.3891 39.0176 44.9852 39.02C45.3797 39.0188 45.7706 39.0958 46.1353 39.2464C46.5 39.397 46.8312 39.6183 47.1099 39.8976C47.3886 40.1769 47.6093 40.5086 47.7592 40.8735C47.909 41.2385 47.9852 41.6296 47.9832 42.0241Z" fill="white"/>
</svg>
