<svg width="90" height="90" viewBox="0 0 90 90" fill="none" xmlns="http://www.w3.org/2000/svg">
<path d="M84.4453 9.8271C82.8156 13.0959 81.1759 16.3602 79.5624 19.6371C79.2422 20.2878 78.7907 20.5929 78.0648 20.5677C77.2149 20.538 76.364 20.5488 75.5141 20.5677C75.3198 20.5737 75.1335 20.6468 74.987 20.7747C66.3898 29.3649 57.7973 37.959 49.2097 46.557C49.1404 46.6263 49.0801 46.7046 48.9299 46.8774C49.0936 46.9962 49.2582 47.0952 49.4003 47.2203C50.6352 48.3111 50.6011 48.924 49.3949 50.0418C48.5207 50.8518 47.7013 51.7239 46.8577 52.5681C46.7614 52.6653 46.6688 52.767 46.5159 52.9281C46.8091 53.1981 47.0942 53.4492 47.3623 53.7156C48.0485 54.3969 48.0458 55.0359 47.3623 55.7226L25.6026 77.4963C23.6185 79.4805 21.6359 81.4665 19.6547 83.4543C19.3004 83.8143 18.9091 83.9943 18.4027 83.9763C17.7057 83.9565 17.0068 83.9673 16.3089 83.9763C16.1183 83.9807 15.9288 83.9452 15.7527 83.8721C15.5766 83.7989 15.4177 83.6897 15.2862 83.5515C12.4885 80.7477 9.68796 77.9454 6.88477 75.1446C6.74696 75.0125 6.63844 74.8529 6.56623 74.6762C6.49403 74.4994 6.45976 74.3095 6.46564 74.1186C6.47103 73.4202 6.48183 72.7209 6.46564 72.0234C6.45125 71.5167 6.63293 71.1288 6.9891 70.7724C12.6363 65.1288 18.2813 59.4804 23.9243 53.8272L34.6687 43.0758C35.3883 42.3558 36.0089 42.3504 36.7284 43.0758C36.9785 43.3278 37.215 43.5933 37.4884 43.8858C37.6251 43.7607 37.7268 43.6752 37.8212 43.5807C38.6478 42.7554 39.4995 41.9526 40.2928 41.0967C41.5439 39.7467 42.0872 39.7701 43.2726 41.0913C43.3705 41.2194 43.4586 41.3548 43.5361 41.4963C43.7376 41.3073 43.8401 41.2173 43.9364 41.121C52.4635 32.5866 60.9921 24.0546 69.5222 15.525C69.6293 15.4306 69.7138 15.3131 69.7692 15.1814C69.8247 15.0497 69.8497 14.9072 69.8424 14.7645C69.8199 13.8888 69.837 13.0122 69.8343 12.1356C69.8343 11.5704 70.0834 11.1699 70.5889 10.9179C73.777 9.3249 76.9643 7.7307 80.1506 6.1353C80.2864 6.0669 80.4204 6.0048 80.5607 5.94H81.0176C81.3396 6.1776 81.6877 6.39 81.9773 6.66C82.5769 7.2246 83.1598 7.8081 83.7258 8.4105C83.9956 8.7003 84.2079 9.0477 84.4453 9.3699V9.8271ZM35.5799 45.4392C35.5174 45.5629 35.4407 45.6789 35.3514 45.7848C26.7673 54.3816 18.1749 62.9739 9.57403 71.5617C9.06676 72.0666 8.78344 72.5517 8.86169 73.2717C8.89587 73.5912 8.96243 73.8315 9.19718 74.0646C11.4673 76.32 13.7419 78.57 15.9761 80.8632C16.4762 81.3771 16.9655 81.6498 17.685 81.5733C18.0061 81.5382 18.2435 81.4671 18.4765 81.234C27.1985 72.498 35.9222 63.7665 44.6478 55.0395C44.7512 54.936 44.8484 54.8271 44.9032 54.7695L35.5799 45.4392ZM47.3623 45.1026C47.464 44.9556 47.5745 44.815 47.6932 44.6814C56.3511 36.0138 65.0092 27.3459 73.6676 18.6777C74.0336 18.3105 74.4303 18.1269 74.9511 18.1422C75.7371 18.1638 76.525 18.1584 77.3111 18.1368C77.4523 18.1368 77.6601 18.0279 77.7195 17.91C79.0371 15.3072 80.3359 12.6945 81.6454 10.0872C81.7435 9.8919 81.7165 9.7686 81.5618 9.6255C81.292 9.3762 81.0275 9.1179 80.7829 8.8434C80.6165 8.658 80.4726 8.6553 80.2567 8.7633C77.6874 10.0611 75.1139 11.349 72.5361 12.627C72.3041 12.7422 72.2348 12.8799 72.2402 13.1265C72.2555 13.8465 72.2195 14.5755 72.2537 15.2982C72.2834 15.9165 72.0738 16.3782 71.6322 16.8165C62.972 25.4655 54.3181 34.1205 45.6704 42.7815C45.558 42.894 45.4501 43.0119 45.3619 43.1037L47.3623 45.1026ZM41.82 43.11L39.3574 45.5679L44.8439 51.0579L47.3065 48.5919L41.82 43.11Z" fill="#085F34"/>
<path d="M84.4441 72.018C84.0105 72.8919 83.5806 73.7676 83.1408 74.6388C82.6767 75.5577 81.7917 75.7035 81.0605 74.9781C79.0589 72.9777 77.0577 70.9743 75.0568 68.9679C74.9672 68.8672 74.8855 68.7597 74.8122 68.6466L69.1647 74.2977C69.2079 74.3436 69.3059 74.4534 69.4103 74.5578C71.4028 76.5522 73.3953 78.5463 75.3878 80.5401C76.1901 81.3429 76.0534 82.2006 75.0424 82.7136C74.5109 82.9836 73.9631 83.223 73.4478 83.5236C72.8531 83.8662 72.1696 84.0229 71.4852 83.9736C69.1287 83.8611 66.8136 83.5587 64.6164 82.6434C61.0789 81.1683 58.8133 78.5232 57.5856 74.9394C56.9146 72.981 56.5962 70.956 56.4991 68.8941C56.4613 68.1075 56.4397 67.3206 56.4343 66.5334C56.4382 66.4217 56.4177 66.3105 56.3744 66.2074C56.3311 66.1044 56.2659 66.012 56.1834 65.9367C53.647 63.4083 51.1143 60.8769 48.5851 58.3425C48.4878 58.2536 48.3857 58.17 48.2793 58.0923L50.0035 56.3823C50.0539 56.4282 50.1375 56.5002 50.2158 56.5785C52.9086 59.2725 55.6027 61.9653 58.2979 64.6569C58.4786 64.8231 58.6211 65.0266 58.7155 65.2533C58.81 65.48 58.8541 65.7245 58.8448 65.97C58.7962 68.2605 58.9068 70.5393 59.4555 72.7758C60.0365 75.1428 61.0448 77.2704 62.9569 78.8724C64.548 80.2062 66.4215 80.9127 68.4434 81.2421C69.4573 81.3957 70.4787 81.4952 71.5032 81.54C71.8693 81.5607 72.2461 81.4032 72.6176 81.3267C72.6176 81.2826 72.6239 81.2367 72.6266 81.1926C72.5277 81.0864 72.4305 80.9784 72.328 80.8758L66.7003 75.24C65.9979 74.5371 65.9997 73.9125 66.7057 73.2069C69.0388 70.8705 71.3722 68.5353 73.7059 66.2013C74.3742 65.5326 75.0163 65.5326 75.6846 66.2013C77.5608 68.0775 79.4361 69.9552 81.3105 71.8344C81.4122 71.9487 81.5071 72.0689 81.5947 72.1944L81.7593 72.1647C81.8492 71.8245 82.0093 71.4834 82.0039 71.145C81.9698 69.075 81.6891 67.0491 80.9031 65.115C79.7428 62.2638 77.6301 60.4404 74.7663 59.4297C72.6248 58.6746 70.4014 58.4235 68.1493 58.3668C67.5152 58.3506 66.8757 58.4046 66.247 58.3443C65.9178 58.3128 65.5275 58.1859 65.2981 57.9618C61.2609 53.955 57.236 49.935 53.2234 45.9018C53.2063 45.8838 53.1937 45.8604 53.2 45.8685L54.8819 44.1819C54.9431 44.2395 55.0438 44.3286 55.1392 44.424C58.8832 48.168 62.6253 51.915 66.3657 55.665C66.4531 55.7616 66.5608 55.8377 66.6809 55.888C66.8011 55.9382 66.9309 55.9613 67.061 55.9557C69.7089 55.9467 72.3316 56.1528 74.8796 56.9385C78.3982 58.023 81.1414 60.0588 82.781 63.4338C83.6391 65.2005 84.0789 67.0806 84.2831 69.0237C84.3397 69.5637 84.391 70.1037 84.445 70.6437L84.4441 72.018Z" fill="#085F34"/>
<path d="M19.857 5.94C20.3841 5.994 20.9112 6.0462 21.4382 6.1038C24.2264 6.4098 26.8527 7.1784 29.1193 8.9208C31.1591 10.4886 32.4741 12.5613 33.3025 14.967C33.9797 16.9362 34.2981 18.9738 34.398 21.0483C34.4357 21.8349 34.4294 22.6233 34.4789 23.4081C34.4965 23.6257 34.5861 23.8312 34.7334 23.9922C38.4678 27.7452 42.2088 31.4922 45.9564 35.2332C46.0553 35.3313 46.1651 35.4186 46.2415 35.487L44.5326 37.1898C44.4966 37.1574 44.4049 37.0782 44.3204 36.9936C40.4151 33.0864 36.5086 29.1813 32.6009 25.2783C32.4162 25.106 32.2713 24.8955 32.1762 24.6614C32.0811 24.4273 32.0382 24.1753 32.0505 23.9229C32.0999 21.6459 31.9857 19.3797 31.4407 17.1549C30.8515 14.7474 29.8217 12.591 27.8565 10.9827C26.2825 9.6939 24.4387 9.0027 22.46 8.6841C21.4447 8.53111 20.4222 8.43107 19.3965 8.3844C19.0296 8.3637 18.6527 8.5194 18.2803 8.5941L18.2696 8.73C18.3676 8.8353 18.4629 8.9433 18.5646 9.045C20.4486 10.9314 22.3331 12.8178 24.2183 14.7042C24.8875 15.3738 24.8893 16.0164 24.2183 16.6842C21.8678 19.0386 19.5162 21.3918 17.1633 23.7438C16.5283 24.3783 15.8699 24.3801 15.2385 23.7492C13.3473 21.8556 11.455 19.9602 9.56137 18.063C9.46846 17.9588 9.38224 17.8487 9.30324 17.7336L9.13865 17.7597C9.0487 18.0981 8.88591 18.4374 8.89131 18.774C8.92368 20.844 9.2043 22.8699 9.9895 24.804C11.183 27.7425 13.383 29.574 16.3403 30.564C18.4162 31.2606 20.5676 31.5027 22.7415 31.554C23.3756 31.5693 24.0141 31.5198 24.6437 31.5747C24.963 31.6026 25.3498 31.7133 25.5665 31.9275C28.4114 34.7382 31.2329 37.575 34.0274 40.3731L32.3185 42.1101C32.2455 42.0091 32.1668 41.9123 32.0828 41.8203C29.5693 39.3057 27.0563 36.7899 24.5439 34.2729C24.4527 34.1716 24.3403 34.0917 24.2147 34.0388C24.0891 33.9859 23.9533 33.9613 23.8172 33.9669C21.2988 33.975 18.8029 33.777 16.3646 33.0831C11.1587 31.6017 8.02516 28.2024 6.92068 22.9131C6.61418 21.3816 6.46351 19.8229 6.47097 18.261C6.47301 18.0086 6.52946 17.7597 6.63646 17.5311C6.99623 16.7616 7.38298 16.0011 7.77063 15.2469C8.21494 14.3775 9.11976 14.2326 9.80961 14.9229C11.8231 16.9317 13.8336 18.9438 15.8411 20.9592C15.9302 21.0607 16.0109 21.1694 16.0822 21.2841L21.7332 15.6303C21.6847 15.579 21.5857 15.4692 21.4814 15.3648C19.4901 13.3704 17.4979 11.3763 15.5047 9.3825C14.7034 8.5797 14.8446 7.7112 15.8546 7.209L18.4099 5.94H19.857Z" fill="#085F34"/>
<path d="M35.5787 45.4392L44.9021 54.7686C44.8472 54.8271 44.7501 54.936 44.6466 55.0386C35.9211 63.7692 27.1985 72.501 18.4789 81.234C18.246 81.4671 18.0085 81.5382 17.6874 81.5733C16.9679 81.6498 16.475 81.3771 15.9785 80.8632C13.7408 78.57 11.4662 76.32 9.19602 74.07C8.96127 73.8369 8.89472 73.5966 8.86054 73.2771C8.78229 72.5571 9.0656 72.0702 9.57288 71.5671C18.1785 62.9871 26.771 54.3948 35.3502 45.7902C35.4399 45.6826 35.5166 45.5648 35.5787 45.4392ZM13.7174 74.2158C14.1806 74.2059 14.4891 73.9854 14.7769 73.6965C21.9795 66.4845 29.1838 59.2743 36.39 52.0659C36.4733 51.9878 36.552 51.9049 36.6256 51.8175C36.7523 51.6655 36.839 51.4842 36.8778 51.2902C36.9167 51.0961 36.9065 50.8954 36.8481 50.7063C36.7898 50.5172 36.6851 50.3456 36.5437 50.2073C36.4023 50.0689 36.2286 49.9681 36.0383 49.914C35.4762 49.734 35.0669 49.9887 34.6838 50.3721C27.4824 57.5847 20.2787 64.794 13.0725 72C12.9783 72.0853 12.8914 72.1784 12.8126 72.2781C12.532 72.6696 12.4708 73.0881 12.6894 73.5327C12.9079 73.9773 13.2812 74.1762 13.7174 74.2158ZM17.3664 77.8734C17.8251 77.868 18.1363 77.652 18.4259 77.3631C25.6368 70.1415 32.8499 62.9238 40.065 55.71C40.1485 55.6319 40.2266 55.5484 40.2989 55.4598C40.4197 55.3073 40.5014 55.1275 40.5366 54.9361C40.5719 54.7447 40.5597 54.5476 40.5011 54.362C40.4425 54.1764 40.3393 54.008 40.2005 53.8717C40.0618 53.7353 39.8917 53.635 39.7052 53.5797C39.1449 53.3997 38.7321 53.6427 38.348 54.0297C31.1365 61.2465 23.9234 68.4633 16.7089 75.6801C16.6242 75.7569 16.5457 75.8403 16.4741 75.9294C16.1926 76.32 16.1252 76.7394 16.3401 77.184C16.5551 77.6286 16.9265 77.8302 17.3664 77.8734Z" fill="white"/>
<path d="M41.82 43.11L47.3065 48.5928L44.8439 51.0588L39.3574 45.5688L41.82 43.11Z" fill="white"/>
<path d="M13.7185 74.2158C13.2823 74.1762 12.9091 73.9755 12.6905 73.5354C12.472 73.0953 12.5331 72.6723 12.8137 72.2808C12.8925 72.181 12.9795 72.088 13.0737 72.0027C20.278 64.7931 27.4818 57.5829 34.6849 50.3721C35.0681 49.9887 35.4773 49.7421 36.0394 49.914C36.2297 49.9681 36.4034 50.0689 36.5449 50.2072C36.6863 50.3456 36.7909 50.5171 36.8493 50.7062C36.9076 50.8954 36.9178 51.0961 36.879 51.2901C36.8401 51.4842 36.7534 51.6655 36.6268 51.8175C36.5531 51.9048 36.4745 51.9878 36.3911 52.0659C29.1868 59.2761 21.9824 66.4863 14.7781 73.6965C14.4903 73.9854 14.1818 74.2059 13.7185 74.2158Z" fill="#085F34"/>
<path d="M17.3667 77.8734C16.9269 77.8302 16.5572 77.6259 16.3404 77.184C16.1237 76.7421 16.1929 76.32 16.4744 75.9294C16.5461 75.8403 16.6246 75.757 16.7092 75.6801C23.9225 68.4615 31.1356 61.2423 38.3483 54.0225C38.7324 53.6382 39.1452 53.3925 39.7056 53.5725C39.892 53.6278 40.0621 53.7281 40.2009 53.8645C40.3396 54.0009 40.4428 54.1692 40.5014 54.3548C40.56 54.5404 40.5722 54.7375 40.5369 54.9289C40.5017 55.1203 40.42 55.3001 40.2992 55.4526C40.2269 55.5412 40.1488 55.6248 40.0653 55.7028C32.852 62.9226 25.6392 70.1427 18.4271 77.3631C18.1366 77.652 17.8254 77.868 17.3667 77.8734Z" fill="#085F34"/>
</svg>
