<svg width="190" height="190" viewBox="0 0 190 190" fill="none" xmlns="http://www.w3.org/2000/svg">
<path d="M55.7983 23.1796C57.1964 24.5034 58.6696 25.7493 60.3081 26.7909C68.6658 32.1052 93.5327 44.8921 132.972 39.6662C182.25 33.1367 175.021 80.5024 167.93 93.1262C160.839 105.75 134.761 128.891 132.571 140.486C130.38 152.081 139.753 183.749 117.792 174.246C95.8311 164.743 83.1444 142.486 54.3189 145.073C25.4933 147.66 5.12448 135.448 17.8844 113.631C30.6444 91.8142 45.9 77.7356 26.4281 53.4341C7.49674 29.8084 39.3846 7.63961 55.7983 23.1796Z" fill="#D7DFDB"/>
<path d="M106.974 54.7219C106.669 54.4147 106.494 54.0014 106.487 53.5685C106.479 53.1356 106.639 52.7166 106.933 52.399L117.789 40.6817C117.943 40.5157 118.129 40.3825 118.336 40.2902C118.542 40.1978 118.765 40.1482 118.991 40.1443C119.218 40.1404 119.442 40.1822 119.652 40.2674C119.862 40.3525 120.052 40.4791 120.211 40.6397L121.148 41.5834C121.308 41.744 121.433 41.9351 121.517 42.1453C121.6 42.3555 121.641 42.5805 121.635 42.8067C121.63 43.0329 121.578 43.2556 121.485 43.4615C121.391 43.6674 121.256 43.8522 121.089 44.0048L109.296 54.7784C108.977 55.0705 108.557 55.2277 108.124 55.2172C107.691 55.2067 107.279 55.0292 106.974 54.7219Z" fill="#085F34"/>
<path d="M100.104 50.7281C99.8442 50.613 99.6391 50.4021 99.5314 50.1395C99.4238 49.8768 99.4218 49.5826 99.5259 49.3185L103.368 39.5749C103.422 39.4369 103.504 39.3113 103.608 39.2057C103.712 39.1001 103.837 39.0166 103.974 38.9604C104.111 38.9041 104.259 38.8762 104.407 38.8783C104.555 38.8804 104.702 38.9124 104.837 38.9726L105.635 39.326C105.77 39.3861 105.892 39.473 105.994 39.5815C106.095 39.69 106.173 39.8178 106.223 39.9573C106.274 40.0968 106.296 40.2451 106.287 40.3932C106.279 40.5413 106.241 40.6863 106.175 40.8193L101.536 50.2095C101.411 50.4641 101.191 50.6603 100.924 50.7569C100.657 50.8535 100.363 50.8432 100.104 50.7281Z" fill="#085F34"/>
<path d="M93.1109 52.3205C92.2255 52.48 91.3373 51.7202 91.0969 50.5984L86.836 30.6784C86.5818 29.488 87.1518 28.3558 88.091 28.1865L89.3999 27.9509C90.3391 27.7818 91.2688 28.6444 91.4452 29.8485L94.3976 50.004C94.5638 51.1395 93.9963 52.1611 93.1109 52.3205Z" fill="#085F34"/>
<path d="M161.983 71.0673L143.19 68.6448C142.874 68.611 142.555 68.6745 142.275 68.8268C141.996 68.9791 141.77 69.213 141.626 69.4972L136.629 79.3638L115.712 121.198C115.49 121.64 115.117 121.988 114.661 122.18C114.206 122.372 113.696 122.396 113.225 122.246L56.4484 104.124C56.2919 104.074 56.1256 104.061 55.9634 104.088C55.8013 104.115 55.6477 104.18 55.5155 104.278C55.3833 104.375 55.2762 104.503 55.203 104.65C55.1298 104.797 55.0926 104.96 55.0944 105.124L55.1204 107.482C55.1236 107.81 55.2302 108.128 55.4249 108.392C55.6196 108.656 55.8925 108.851 56.2049 108.951L116.276 128.124C116.945 128.338 117.547 128.725 118.018 129.246C118.49 129.767 118.816 130.404 118.963 131.091L118.983 131.185C119.506 134.055 116.677 136.411 113.89 135.565L48.0201 114.513C47.6823 114.406 47.3912 114.186 47.1951 113.891C46.9991 113.595 46.9098 113.242 46.942 112.889L52.0971 56.5948C52.123 56.3046 52.2097 56.023 52.3514 55.7684C52.4932 55.5138 52.687 55.2919 52.9201 55.1171C53.1532 54.9422 53.4205 54.8184 53.7046 54.7535C53.9887 54.6887 54.2833 54.6843 54.5692 54.7407L133.48 70.1775L138.562 60.0767C138.709 59.7913 138.94 59.5577 139.224 59.4076C139.507 59.2574 139.83 59.1979 140.149 59.2371L163.161 62.184C163.365 62.2097 163.562 62.2756 163.741 62.3779C163.919 62.4802 164.076 62.6169 164.201 62.78C164.326 62.9432 164.418 63.1296 164.471 63.3285C164.524 63.5273 164.536 63.7346 164.509 63.9385L163.724 69.7266C163.669 70.1348 163.456 70.5048 163.13 70.7559C162.803 71.0071 162.391 71.119 161.983 71.0673Z" fill="#085F34"/>
<path d="M55.2793 94.4853L61.7093 96.5376L67.8772 65.2611L58.0059 63.7454L55.2793 94.4853Z" fill="#D7DFDB"/>
<path d="M105.73 110.588L112.16 112.641L128.789 77.6179L121.707 75.9023L105.73 110.588Z" fill="#D7DFDB"/>
<path d="M80.998 102.695L86.9335 104.589L99.6472 71.587L89.9338 69.5767L80.998 102.695Z" fill="#D7DFDB"/>
<path d="M73.4752 66.5032L83.1886 68.5135L74.5686 100.642L68.1387 98.59L73.4752 66.5032Z" fill="#D7DFDB"/>
<path d="M115.613 74.5026L105.9 72.4922L93.8594 106.799L99.7948 108.694L115.613 74.5026Z" fill="#D7DFDB"/>
<path d="M56.5206 134.838C60.6784 134.838 64.0489 131.467 64.0489 127.309C64.0489 123.151 60.6784 119.781 56.5206 119.781C52.3628 119.781 48.9922 123.151 48.9922 127.309C48.9922 131.467 52.3628 134.838 56.5206 134.838Z" fill="#085F34"/>
<path d="M103.509 149.835C107.667 149.835 111.037 146.465 111.037 142.307C111.037 138.149 107.667 134.779 103.509 134.779C99.351 134.779 95.9805 138.149 95.9805 142.307C95.9805 146.465 99.351 149.835 103.509 149.835Z" fill="#085F34"/>
<path d="M165.364 61.8726L145.531 59.3897C145.421 59.3759 145.321 59.4539 145.307 59.5638L144.105 69.166C144.091 69.2759 144.169 69.3762 144.279 69.39L164.112 71.8729C164.222 71.8867 164.322 71.8087 164.336 71.6988L165.538 62.0967C165.552 61.9867 165.474 61.8864 165.364 61.8726Z" fill="#085F34"/>
</svg>
