<svg width="156" height="110" viewBox="0 0 156 110" fill="none" xmlns="http://www.w3.org/2000/svg">
<path d="M73.0603 2.59961C73.0603 3.59411 73.0603 4.58023 73.0603 5.56634C73.0603 5.98596 72.6729 5.88525 72.4497 5.93561C70.2686 6.39664 68.1488 7.1092 66.1332 8.0589C57.8164 12.0243 52.2789 18.4068 49.5922 27.1895C48.3219 31.2598 48.0007 35.5654 48.6532 39.7781C50.405 51.066 56.5741 59.0808 66.988 63.768C71.3737 65.7231 76.1851 66.5388 80.9729 66.1388C88.4731 65.6671 95.5285 62.43 100.765 57.0582C102.685 55.1242 104.326 52.9339 105.641 50.5499C105.702 50.417 105.804 50.3071 105.932 50.2361C106.06 50.1651 106.207 50.1369 106.353 50.1554C107.363 50.1554 108.374 50.1554 109.393 50.1554C104.82 60.5495 92.1279 70.8973 75.4564 69.2147C66.8489 68.3573 58.9022 64.2334 53.2626 57.6973C47.6229 51.1611 44.7225 42.7137 45.1622 34.1049C46.0381 16.3255 59.8587 4.6054 73.0603 2.59961Z" fill="#085F34"/>
<path d="M42.3032 99.1631V98.6302C42.3032 93.3485 42.3032 88.0655 42.3032 82.781C42.2758 82.4791 42.3238 82.1752 42.4428 81.8963C42.5618 81.6173 42.7482 81.372 42.9854 81.1823C43.2377 80.9696 43.5456 80.833 43.873 80.7884C44.2004 80.7438 44.5338 80.7931 44.8341 80.9305C45.1451 81.0647 45.4109 81.2852 45.5998 81.5657C45.7886 81.8461 45.8927 82.1748 45.8995 82.5125C45.9079 82.6802 45.9079 82.8483 45.8995 83.016V104.748C45.9195 105.137 45.8097 105.521 45.5872 105.841C45.3647 106.16 45.0421 106.397 44.6698 106.515C44.293 106.652 43.8799 106.655 43.5012 106.523C43.1224 106.39 42.8017 106.131 42.5938 105.789C41.1199 103.691 39.6671 101.593 38.2059 99.5198C35.7747 96.0369 33.3436 92.5554 30.9124 89.0754C30.817 88.9251 30.6814 88.8045 30.5208 88.7271V89.281C30.5208 94.378 30.5208 99.4764 30.5208 104.576C30.5208 105.39 30.2807 106.062 29.4891 106.431C29.2231 106.555 28.9305 106.612 28.6373 106.596C28.3441 106.58 28.0594 106.492 27.8085 106.34C27.5576 106.188 27.3483 105.977 27.1992 105.724C27.0501 105.472 26.9659 105.187 26.954 104.895C26.9245 104.077 26.954 103.254 26.954 102.432C26.954 95.8411 26.954 89.2502 26.954 82.6593C26.9399 82.2592 27.0592 81.8657 27.2931 81.5402C27.5271 81.2146 27.8626 80.9755 28.2473 80.86C28.6321 80.7445 29.0443 80.7592 29.4198 80.9018C29.7953 81.0443 30.1128 81.3067 30.3228 81.648C34.1717 87.3353 38.0164 93.0212 41.8569 98.7057L42.198 99.1966L42.3032 99.1631Z" fill="#085F34"/>
<path d="M77.4443 2.08765H80.5436V2.71708C80.5913 14.9784 80.6362 27.2384 80.6783 39.497C80.6811 39.9002 80.7135 40.3027 80.7752 40.7013C80.8346 41.2339 81.09 41.7256 81.4922 42.0814C81.8943 42.4371 82.4145 42.6317 82.9523 42.6274C83.2513 42.6274 83.5545 42.6274 83.8577 42.6274H109.212C109.616 42.6237 110.019 42.656 110.417 42.7239C110.779 42.7802 111.109 42.9663 111.343 43.2473C111.578 43.5284 111.702 43.885 111.691 44.2505C111.681 44.6159 111.537 44.9651 111.287 45.2325C111.037 45.5 110.698 45.6673 110.332 45.7032C109.948 45.7487 109.561 45.7711 109.174 45.7703C99.6968 45.7703 90.2191 45.7703 80.7415 45.7703C80.4383 45.7703 80.1351 45.7451 79.8319 45.7242C78.4086 45.6277 77.7264 44.9437 77.579 43.517C77.558 43.282 77.558 43.047 77.558 42.812L77.4443 2.81359C77.44 2.587 77.4443 2.3562 77.4443 2.08765Z" fill="#085F34"/>
<path d="M52.2032 95.6215V102.889H52.8012C56.17 102.889 59.5641 102.889 62.9456 102.889C63.2399 102.87 63.5351 102.914 63.8106 103.019C64.0862 103.124 64.3356 103.287 64.5415 103.498C64.7736 103.733 64.9309 104.031 64.9938 104.355C65.0567 104.679 65.0224 105.014 64.8953 105.319C64.7793 105.636 64.576 105.915 64.3087 106.123C64.0414 106.331 63.7207 106.459 63.3835 106.494C63.2321 106.504 63.0801 106.504 62.9287 106.494C58.8398 106.494 54.7467 106.465 50.6578 106.494C50.3769 106.503 50.0971 106.455 49.8359 106.352C49.5747 106.248 49.3378 106.092 49.1401 105.893C48.9424 105.694 48.7881 105.457 48.6869 105.195C48.5857 104.934 48.5399 104.655 48.5523 104.375C48.5944 97.2833 48.5733 90.1916 48.5733 83.0958C48.5733 81.6062 49.226 80.9599 50.7336 80.9599C54.8042 80.9599 58.8749 80.9599 62.9456 80.9599C63.2402 80.9402 63.5356 80.9839 63.8118 81.0882C64.0879 81.1925 64.3383 81.3548 64.5458 81.5642C64.7806 81.7969 64.9401 82.0943 65.0039 82.4181C65.0677 82.7419 65.0328 83.0773 64.9037 83.3812C64.7938 83.702 64.5922 83.9838 64.3235 84.1918C64.0549 84.3999 63.7311 84.525 63.3919 84.5519C63.2109 84.5519 63.0214 84.5519 62.8361 84.5519H52.2116V91.9876H52.7843C55.3741 91.9876 57.9681 91.9876 60.5579 91.9876C61.0042 91.9764 61.4385 92.1321 61.7752 92.4242C62.112 92.7162 62.3267 93.1234 62.3771 93.5654C62.436 94.0103 62.3268 94.4611 62.0707 94.8302C61.8147 95.1993 61.4301 95.4605 60.9916 95.5628C60.795 95.6026 60.5943 95.6195 60.3937 95.6132H52.2032V95.6215Z" fill="#085F34"/>
<path d="M82.7036 2.08765L85.9166 2.71708V3.44303L85.9545 36.4421C85.9545 37.1681 85.9545 37.1681 86.6999 37.1681C91.9019 37.1681 97.0955 37.1681 102.281 37.1681C102.704 37.1562 103.127 37.1871 103.544 37.2604C103.896 37.3189 104.215 37.5013 104.444 37.7745C104.672 38.0476 104.795 38.3934 104.789 38.7489C104.784 39.1045 104.65 39.4462 104.413 39.7121C104.176 39.9779 103.851 40.1503 103.498 40.1977C103.184 40.255 102.865 40.2831 102.546 40.2817H85.744C83.5837 40.2817 82.8257 39.5305 82.8173 37.3737C82.7752 25.8229 82.7373 14.2693 82.7036 2.71288V2.08765Z" fill="#085F34"/>
<path d="M6.20201 102.923H16.9865C18.2498 102.923 19.033 103.712 18.9656 104.882C18.9295 105.285 18.7587 105.663 18.4807 105.957C18.2027 106.251 17.8336 106.443 17.4328 106.502C17.2644 106.502 17.096 106.502 16.9275 106.502H4.60603C3.27113 106.502 2.58053 105.822 2.58053 104.492C2.58053 97.3335 2.58053 90.1733 2.58053 83.0118C2.54357 82.6512 2.61515 82.2879 2.78613 81.9681C2.95712 81.6482 3.21977 81.3863 3.54064 81.2158C3.8395 81.0544 4.17861 80.9821 4.51757 81.0074C4.85653 81.0327 5.18104 81.1545 5.45245 81.3584C5.70226 81.5333 5.90305 81.7688 6.03572 82.0428C6.16839 82.3168 6.22853 82.62 6.21044 82.9236C6.21044 83.6915 6.21044 84.4636 6.21044 85.2357V102.902L6.20201 102.923Z" fill="#085F34"/>
<path d="M112.472 31.6669C111.457 31.6669 110.484 31.6669 109.524 31.6669C109.406 31.6669 109.221 31.4277 109.195 31.2808C108.836 28.8561 108.188 26.4826 107.267 24.2102C105.406 19.6398 102.453 15.5918 98.6636 12.4188C96.3038 10.417 93.6402 8.80096 90.7721 7.63091C90.6148 7.5875 90.4791 7.48762 90.3912 7.35049C90.3034 7.21335 90.2696 7.04868 90.2963 6.88818C90.3257 5.94822 90.2963 5.01246 90.2963 4.00537C95.9743 6.03461 101.008 9.53384 104.879 14.1434C110.286 20.5175 112.143 26.8748 112.472 31.6669Z" fill="#085F34"/>
<path d="M100.723 50.7386C95.223 59.0472 83.908 64.4015 72.0876 61.2879C66.148 59.7318 60.9367 56.1651 57.3471 51.1993C53.7576 46.2336 52.0134 40.1781 52.4137 34.0712C53.2559 20.9958 62.9413 12.3852 72.0834 10.2031C72.0834 10.2283 72.1382 10.2535 72.1382 10.2787C72.1971 11.2018 72.1845 11.1725 71.2623 11.4872C61.9475 14.6763 56.0015 21.063 53.9592 30.6723C51.5294 42.1238 57.1848 53.3319 67.7334 58.5604C71.7923 60.5788 76.3311 61.4428 80.8508 61.0572C86.836 60.6427 92.4735 58.1026 96.739 53.8984C97.5314 53.1471 98.2583 52.3301 98.9119 51.4562C99.3878 50.7974 99.9099 50.5246 100.723 50.7386Z" fill="#434242"/>
<path d="M21.2858 93.6912C21.2858 90.0209 21.2858 86.3492 21.2858 82.6762C21.2817 82.3341 21.3765 81.998 21.5589 81.7081C21.7412 81.4182 22.0034 81.1867 22.3141 81.0412C22.6248 80.8957 22.971 80.8423 23.3113 80.8874C23.6516 80.9325 23.9717 81.0742 24.2335 81.2956C24.4626 81.4951 24.6409 81.746 24.7537 82.0276C24.8664 82.3092 24.9104 82.6135 24.882 82.9153V104.442C24.9406 104.978 24.7898 105.516 24.4609 105.944C24.2341 106.217 23.9295 106.415 23.5873 106.512C23.2452 106.608 22.8817 106.599 22.5449 106.486C22.2027 106.364 21.904 106.145 21.686 105.855C21.4681 105.566 21.3406 105.219 21.3195 104.857C21.3195 103.968 21.3195 103.078 21.3195 102.193L21.2858 93.6912Z" fill="#085F34"/>
<path d="M109.558 105.776H123.597V107.337H107.936V80.9011H123.269V82.4579H109.558V105.776Z" fill="#434242"/>
<path d="M91.9176 50.7344C88.8914 53.3417 85.1472 54.9801 81.1729 55.436C77.1987 55.8919 73.1788 55.1442 69.6372 53.2905C66.0956 51.4367 63.1966 48.5627 61.318 45.0432C59.4393 41.5237 58.6683 37.5218 59.1052 33.5593C60.0822 24.8815 66.3356 18.9648 72.1594 17.0891C72.1447 17.2917 72.1447 17.495 72.1594 17.6976C72.2142 18.0459 72.0457 18.1927 71.7383 18.3144C69.5284 19.1935 67.5158 20.5014 65.8176 22.1623C62.4079 25.4455 60.3599 29.8849 60.0791 34.6014C59.7983 39.3179 61.3053 43.9674 64.3016 47.6292C67.1954 51.2557 71.3719 53.6414 75.9746 54.297C80.4363 55.0302 85.0132 54.1172 88.8477 51.7289C89.092 51.5821 89.3278 51.4226 89.5636 51.259C90.5111 50.6085 90.6459 50.5792 91.9176 50.7344Z" fill="#434242"/>
<path d="M104.972 105.734V107.308H88.894V80.8718H90.4563V105.734H104.972Z" fill="#434242"/>
<path d="M71.1824 107.333H69.5864V80.897H84.0345V82.4538H71.1824V107.333Z" fill="#434242"/>
<path d="M91.8037 80.876H93.3702V103.019H104.972V104.601H91.8037V80.876Z" fill="#434242"/>
<path d="M152.628 80.8549L142.008 93.6576L153.34 107.354C152.62 107.354 152.009 107.354 151.398 107.354C151.293 107.354 151.175 107.216 151.095 107.115C147.423 102.675 143.751 98.2343 140.079 93.7919C140.042 93.7423 140.008 93.6905 139.978 93.6366L143.153 89.8097C145.49 86.9898 147.836 84.1783 150.16 81.3501C150.271 81.1761 150.428 81.0365 150.614 80.9475C150.8 80.8584 151.008 80.8234 151.213 80.8465C151.638 80.8885 152.072 80.8549 152.628 80.8549Z" fill="#434242"/>
<path d="M125.121 107.367L136.58 93.6576L125.926 80.8591C126.633 80.8591 127.239 80.8591 127.85 80.8591C127.955 80.8591 128.077 80.985 128.157 81.0815C131.611 85.2218 135.059 89.3635 138.504 93.5065C138.533 93.5443 138.555 93.5905 138.605 93.6744L135.977 96.8258C133.17 100.183 130.363 103.54 127.555 106.897C127.447 107.052 127.299 107.176 127.126 107.254C126.954 107.333 126.763 107.363 126.574 107.341C126.136 107.337 125.702 107.367 125.121 107.367Z" fill="#434242"/>
<path d="M110.812 94.5767H122.873V96.1377H112.429V103.074H123.597V104.652H110.812V94.5767Z" fill="#434242"/>
<path d="M122.889 91.8071V93.389H110.816V83.5867H123.268V85.1728H112.425V91.8071H122.889Z" fill="#434242"/>
<path d="M150.004 107.358C149.28 107.358 148.678 107.379 148.08 107.358C147.937 107.358 147.785 107.161 147.659 107.027L139.658 97.3756C139.544 97.2371 139.422 97.1028 139.275 96.935L135.725 101.173C134.091 103.133 132.449 105.084 130.823 107.048C130.738 107.169 130.621 107.266 130.486 107.328C130.35 107.39 130.201 107.415 130.053 107.4C129.568 107.4 129.084 107.4 128.469 107.4L139.283 94.5054L150.004 107.358Z" fill="#434242"/>
<path d="M72.4456 92.7807V83.5994H84.0259V85.1729H74.0626V91.1945H84.0343V92.7975L72.4456 92.7807Z" fill="#434242"/>
<path d="M149.246 80.8549L139.312 92.919L129.345 80.8591C130.061 80.8591 130.676 80.8339 131.282 80.8801C131.434 80.8801 131.589 81.1067 131.703 81.2577C134.061 84.1195 136.417 86.9842 138.769 89.8516C138.929 90.0446 139.089 90.2376 139.3 90.481C139.489 90.2544 139.658 90.0614 139.822 89.86C142.18 86.9786 144.537 84.093 146.892 81.2032C146.977 81.0823 147.092 80.9857 147.225 80.9231C147.359 80.8605 147.507 80.8341 147.655 80.8465C148.147 80.8759 148.631 80.8549 149.246 80.8549Z" fill="#434242"/>
<path d="M72.4583 93.9473H84.0428V95.525H74.0458V107.333H72.4583V93.9473Z" fill="#434242"/>
<path d="M70.3655 45.208C69.9444 45.208 69.5654 45.208 69.1695 45.208C69.0275 45.1779 68.899 45.1029 68.8032 44.994C66.5539 42.6745 65.2308 39.6171 65.0819 36.395C64.9331 33.1728 65.9687 30.0072 67.9947 27.4916C69.047 26.178 70.3227 25.0588 71.7635 24.185C71.873 24.1178 71.9867 24.0591 72.1173 23.9919C72.2122 24.2965 72.2002 24.6242 72.083 24.921C71.9659 25.2177 71.7507 25.4658 71.473 25.6243C67.683 28.3854 65.8218 32.1158 66.1502 36.8072C66.3555 39.6671 67.6031 42.3535 69.658 44.3604C69.9065 44.6122 70.1802 44.8346 70.4413 45.0696L70.3655 45.208Z" fill="#434242"/>
</svg>
