<svg width="232" height="200" viewBox="0 0 232 200" fill="none" xmlns="http://www.w3.org/2000/svg">
<path d="M167 47.575C167 61.9329 144.167 72.9945 116 72.9945C87.8335 72.9945 65 61.9329 65 47.575M167 47.575C167 33.2171 144.167 21 116 21C87.8335 21 65 33.2171 65 47.575M167 47.575V153.58C167 167.938 144.167 179 116 179C87.8335 179 65 167.938 65 153.58V47.575" stroke="#E5E5E5" stroke-width="4"/>
<path d="M87.1786 33.5926C84.1013 36.1528 82.7857 39.4648 82.7857 42.7037C82.7857 51.9289 97.2085 59.4074 115 59.4074C132.791 59.4074 147.214 51.9289 147.214 42.7037C147.214 39.4648 145.899 36.1528 142.821 33.5926M87.1786 33.5926C92.8662 28.8606 103.455 26 115 26C126.545 26 137.134 28.8606 142.821 33.5926M87.1786 33.5926C78.8057 37.0679 74 43.1619 74 48.7778C74 59.261 92.3563 67 115 67C137.644 67 156 59.261 156 48.7778C156 43.1619 151.194 37.0679 142.821 33.5926" stroke="#E5E5E5" stroke-width="4"/>
</svg>
