<svg width="120" height="200" viewBox="0 0 120 200" fill="none" xmlns="http://www.w3.org/2000/svg">
<path d="M111 47.575C111 61.9329 88.1665 72.9945 60 72.9945C31.8335 72.9945 9 61.9329 9 47.575M111 47.575C111 33.2171 88.1665 21 60 21C31.8335 21 9 33.2171 9 47.575M111 47.575V153.58C111 167.938 88.1665 179 60 179C31.8335 179 9 167.938 9 153.58V47.575" stroke="#ACACAC" stroke-width="4"/>
<path d="M31.1786 33.5926C28.1013 36.1528 26.7857 39.4648 26.7857 42.7037C26.7857 51.9289 41.2085 59.4074 59 59.4074C76.7915 59.4074 91.2143 51.9289 91.2143 42.7037C91.2143 39.4648 89.8987 36.1528 86.8214 33.5926M31.1786 33.5926C36.8662 28.8606 47.4549 26 59 26C70.5451 26 81.1338 28.8606 86.8214 33.5926M31.1786 33.5926C22.8057 37.0679 18 43.1619 18 48.7778C18 59.261 36.3563 67 59 67C81.6437 67 100 59.261 100 48.7778C100 43.1619 95.1943 37.0679 86.8214 33.5926" stroke="#ACACAC" stroke-width="4"/>
</svg>
