<svg width="16" height="16" viewBox="0 0 16 16" fill="none" xmlns="http://www.w3.org/2000/svg">
<g clip-path="url(#clip0_1077_587)">
<rect width="16" height="16" fill="white"/>
<g clip-path="url(#clip1_1077_587)">
<path d="M6.76702 0.561035C6.76702 0.786187 6.76702 1.00944 6.76702 1.23269C6.76702 1.32769 6.67937 1.30489 6.62888 1.31629C6.13541 1.42067 5.65582 1.58199 5.19978 1.79699C3.31813 2.69475 2.06529 4.13971 1.45745 6.12808C1.17003 7.04958 1.09737 8.02435 1.24499 8.9781C1.64132 11.5336 3.03708 13.3481 5.39318 14.4093C6.38543 14.8519 7.47399 15.0366 8.5572 14.946C10.2541 14.8392 11.8504 14.1064 13.035 12.8902C13.4695 12.4524 13.8408 11.9565 14.1383 11.4168C14.1521 11.3867 14.1751 11.3618 14.2041 11.3457C14.2331 11.3297 14.2664 11.3233 14.2993 11.3275C14.528 11.3275 14.7566 11.3275 14.9872 11.3275C13.9525 13.6806 11.081 16.0233 7.30913 15.6424C5.36171 15.4483 3.5638 14.5147 2.28784 13.0349C1.01189 11.5552 0.355688 9.64269 0.455175 7.69369C0.653343 3.66851 3.78021 1.01514 6.76702 0.561035Z" fill="#085F34"/>
<path d="M7.75824 0.445312H8.45945V0.587814C8.47024 3.36373 8.48041 6.13934 8.48993 8.91463C8.49056 9.00592 8.49789 9.09705 8.51185 9.18728C8.52528 9.30785 8.58308 9.41918 8.67406 9.49972C8.76504 9.58027 8.88275 9.62431 9.00441 9.62333C9.07205 9.62333 9.14065 9.62333 9.20925 9.62333H14.9456C15.0369 9.6225 15.1281 9.62981 15.2181 9.64518C15.3001 9.65793 15.3747 9.70006 15.4278 9.76369C15.4809 9.82732 15.5089 9.90806 15.5065 9.9908C15.5042 10.0735 15.4717 10.1526 15.4151 10.2131C15.3585 10.2737 15.2817 10.3116 15.1991 10.3197C15.1121 10.33 15.0246 10.3351 14.9371 10.3349C12.7928 10.3349 10.6485 10.3349 8.50422 10.3349C8.43563 10.3349 8.36703 10.3292 8.29844 10.3244C7.97641 10.3026 7.82207 10.1477 7.78872 9.82473C7.78396 9.77153 7.78396 9.71833 7.78396 9.66513L7.75824 0.609664C7.75728 0.558363 7.75824 0.506113 7.75824 0.445312Z" fill="#085F34"/>
<path d="M8.94824 0.445312L9.67518 0.587814V0.752165L9.68375 8.22302C9.68375 8.38737 9.68375 8.38737 9.85238 8.38737C11.0293 8.38737 12.2044 8.38737 13.3775 8.38737C13.4732 8.38467 13.569 8.39168 13.6633 8.40827C13.7429 8.42152 13.8152 8.46282 13.8669 8.52466C13.9186 8.5865 13.9463 8.66478 13.945 8.74527C13.9437 8.82577 13.9136 8.90314 13.8599 8.96332C13.8063 9.02351 13.7328 9.06253 13.6528 9.07328C13.5818 9.08624 13.5097 9.0926 13.4375 9.09228H9.63611C9.14736 9.09228 8.97587 8.92223 8.97397 8.43392C8.96444 5.81887 8.95586 3.20318 8.94824 0.586864V0.445312Z" fill="#085F34"/>
<path d="M15.6832 7.14086C15.4536 7.14086 15.2335 7.14086 15.0163 7.14086C14.9896 7.14086 14.9477 7.08671 14.9419 7.05346C14.8606 6.50453 14.7141 5.96717 14.5056 5.4527C14.0847 4.41798 13.4165 3.50155 12.5592 2.78318C12.0253 2.32999 11.4226 1.96412 10.7737 1.69922C10.7381 1.6894 10.7074 1.66678 10.6876 1.63574C10.6677 1.60469 10.66 1.56741 10.6661 1.53107C10.6727 1.31827 10.6661 1.10642 10.6661 0.878418C11.9507 1.33783 13.0895 2.13004 13.9654 3.17364C15.1887 4.6167 15.6088 6.05596 15.6832 7.14086Z" fill="#085F34"/>
<path d="M13.0245 11.4588C11.7802 13.3398 9.22024 14.552 6.54593 13.8471C5.20211 13.4948 4.02306 12.6873 3.21093 11.5631C2.39881 10.4389 2.0042 9.06795 2.09477 7.68538C2.28531 4.72516 4.47659 2.77574 6.54497 2.28174C6.54497 2.28744 6.55736 2.29314 6.55736 2.29884C6.5707 2.50784 6.56784 2.50119 6.35919 2.57244C4.25175 3.29445 2.90649 4.74036 2.44442 6.91587C1.89469 9.50844 3.17421 12.0459 5.5608 13.2296C6.4791 13.6866 7.506 13.8822 8.52856 13.7949C9.88269 13.7011 11.1582 13.126 12.1232 12.1742C12.3025 12.0041 12.4669 11.8191 12.6148 11.6213C12.7225 11.4721 12.8406 11.4104 13.0245 11.4588Z" fill="#434242"/>
<path d="M11.0327 11.4585C10.348 12.0487 9.50089 12.4197 8.60173 12.5229C7.70258 12.6261 6.79309 12.4568 5.99181 12.0371C5.19054 11.6174 4.53464 10.9668 4.10961 10.17C3.68458 9.37319 3.51012 8.46719 3.60899 7.57009C3.83002 5.60547 5.24483 4.26596 6.56246 3.84131C6.55911 3.88717 6.55911 3.9332 6.56246 3.97906C6.57484 4.05791 6.53673 4.09116 6.46718 4.11871C5.96719 4.31772 5.51186 4.61385 5.12764 4.98987C4.35621 5.73315 3.89284 6.73822 3.82932 7.80601C3.7658 8.87381 4.10676 9.92645 4.78466 10.7555C5.43935 11.5765 6.38428 12.1166 7.42563 12.265C8.43507 12.431 9.47057 12.2243 10.3381 11.6836C10.3934 11.6504 10.4467 11.6143 10.5001 11.5772C10.7145 11.43 10.7449 11.4233 11.0327 11.4585Z" fill="#434242"/>
<path d="M6.15755 10.207C6.06227 10.207 5.97653 10.207 5.88697 10.207C5.85483 10.2002 5.82575 10.1832 5.80408 10.1586C5.29519 9.63346 4.99584 8.94128 4.96217 8.2118C4.92849 7.48233 5.1628 6.76565 5.62116 6.19611C5.85925 5.89873 6.14786 5.64534 6.47385 5.44751C6.49863 5.43231 6.52435 5.41901 6.55388 5.40381C6.57538 5.47275 6.57265 5.54695 6.54614 5.61413C6.51964 5.68132 6.47095 5.73749 6.40812 5.77336C5.55066 6.39847 5.12955 7.24302 5.20386 8.30513C5.2503 8.9526 5.53256 9.56079 5.99749 10.0151C6.0537 10.0721 6.11563 10.1225 6.1747 10.1757L6.15755 10.207Z" fill="#434242"/>
</g>
</g>
<defs>
<clipPath id="clip0_1077_587">
<rect width="16" height="16" fill="white"/>
</clipPath>
<clipPath id="clip1_1077_587">
<rect width="16" height="16" fill="white"/>
</clipPath>
</defs>
</svg>
